<svg width="1700" height="1625" viewBox="0 0 1700 1625" fill="none" xmlns="http://www.w3.org/2000/svg">
<path d="M1440.81 586.121C1441.12 595.312 1442.41 604.889 1444.79 613.77C1582.43 1126.86 1223.45 1357.58 899.501 1357.58C576.215 1357.58 247.7 1191.9 240.674 871.969C240.522 865.064 239.799 857.969 238.469 851.193C166.792 485.835 389.5 243.448 709.097 297.275C722.262 299.492 735.82 299.615 748.942 297.162C1079.21 235.445 1430.48 278.401 1440.81 586.121Z" fill="url(#paint0_linear)" fill-opacity="0.2"/>
<path d="M1293.07 311.103C1297.55 319.132 1303.1 327.057 1309.31 333.845C1688.25 748.559 1463.44 1139.55 1159.41 1296.89C855.968 1453.92 467.094 1457.89 305.358 1160.66C302.057 1154.6 298.15 1148.62 293.85 1143.22C48.5207 834.819 140.169 498.645 467.144 394.332C479.862 390.274 491.969 384.145 502.49 375.929C782.711 157.11 1134 26.261 1293.07 311.103Z" fill="url(#paint1_linear)" fill-opacity="0.1"/>
<path d="M687.933 162.983C697.088 163.836 706.766 163.749 715.874 162.483C1272.29 85.1525 1467.14 491.904 1424.56 831.576C1382.06 1170.59 1165.04 1493.29 828.479 1458.19C821.611 1457.48 814.475 1457.31 807.586 1457.79C414.466 1485.25 189.357 1219.28 288.63 890.741C292.491 877.962 294.298 864.513 293.488 851.188C271.915 496.309 363.094 132.699 687.933 162.983Z" fill="url(#paint2_linear)" fill-opacity="0.1"/>
<path d="M568.526 913.869C568.34 913.869 568.154 913.775 567.969 913.59C567.783 913.404 567.598 913.312 567.505 913.126C567.412 912.941 567.319 912.755 567.319 912.57C567.319 912.384 567.319 912.106 567.319 911.92C567.412 911.735 567.505 911.549 567.598 911.363C569.453 908.766 571.587 906.354 573.999 904.22C574.185 904.035 574.37 903.941 574.556 903.849C574.742 903.756 575.02 903.664 575.205 903.756C575.391 903.756 575.669 903.756 575.855 903.849C576.04 903.941 576.226 904.035 576.411 904.22C576.597 904.406 576.69 904.591 576.782 904.776C576.875 904.962 576.875 905.24 576.875 905.426C576.875 905.612 576.782 905.89 576.69 906.076C576.597 906.261 576.411 906.447 576.226 906.539C573.999 908.581 572.051 910.807 570.288 913.219C570.103 913.497 569.825 913.683 569.546 913.776C569.175 913.961 568.804 913.961 568.526 913.869Z" fill="#110580"/>
<path d="M679.483 922.497C679.297 922.497 679.019 922.312 678.833 922.219C676.978 920.828 675.215 919.436 673.453 918.137C669.927 915.54 666.587 913.22 663.34 911.086C663.154 910.994 662.969 910.808 662.784 910.622C662.691 910.437 662.505 910.251 662.505 910.066C662.412 909.88 662.412 909.602 662.505 909.416C662.505 909.231 662.598 908.953 662.691 908.767C662.784 908.581 662.969 908.396 663.155 908.303C663.34 908.21 663.526 908.117 663.804 908.025C663.989 908.025 664.268 908.025 664.453 908.025C664.639 908.117 664.917 908.21 665.01 908.303C668.35 910.437 671.783 912.849 675.308 915.446C677.164 916.838 678.926 918.23 680.689 919.529C680.967 919.807 681.153 920.085 681.246 920.457C681.338 920.828 681.245 921.198 681.06 921.477C680.874 921.848 680.596 922.034 680.318 922.219C680.132 922.498 679.761 922.59 679.483 922.497ZM591.069 897.263C590.698 897.17 590.42 896.985 590.234 896.706C590.049 896.428 589.863 896.15 589.863 895.779C589.863 895.408 589.956 895.036 590.141 894.851C590.327 894.573 590.606 894.294 590.884 894.201C597.1 891.975 603.594 890.676 610.181 890.397C610.645 890.397 611.016 890.49 611.294 890.861C611.665 891.14 611.85 891.511 611.85 891.975C611.85 892.439 611.758 892.81 611.479 893.088C611.201 893.459 610.738 893.645 610.366 893.645C604.151 893.923 597.935 895.129 592.09 897.263C591.719 897.263 591.44 897.356 591.069 897.263ZM647.105 901.994C647.012 901.994 646.826 901.902 646.734 901.902C641.074 899.211 635.137 897.17 629.014 895.686C628.828 895.686 628.643 895.593 628.457 895.408C628.272 895.315 628.179 895.129 628.086 894.944C627.993 894.758 627.901 894.573 627.808 894.387C627.808 894.201 627.808 893.923 627.808 893.737C627.901 893.366 628.179 892.995 628.55 892.81C628.921 892.624 629.292 892.532 629.756 892.624C636.065 894.202 642.28 896.335 648.125 899.119C648.496 899.304 648.775 899.582 648.868 899.953C649.053 900.325 649.053 900.695 648.96 901.066C648.867 901.438 648.589 901.809 648.218 901.902C647.847 902.087 647.476 902.087 647.105 901.994Z" fill="#110580"/>
<path d="M798.326 602.705C797.306 602.334 796.285 602.426 795.358 602.798C794.43 603.169 793.595 603.911 793.131 604.839L756.949 674.697C757.691 675.068 758.526 675.254 759.269 675.347C760.011 675.347 760.846 675.254 761.588 674.883L870.319 629.238C871.061 628.96 871.71 628.403 872.267 627.847C872.824 627.197 873.195 626.548 873.473 625.713L798.326 602.705Z" fill="#D5D5ED"/>
<path d="M841.93 551.68C841.744 551.587 841.651 551.587 841.466 551.494C841.651 551.587 841.744 551.68 841.93 551.68Z" fill="white"/>
<path d="M799.718 620.425C800.646 620.611 801.666 620.518 802.594 620.147C803.522 619.776 804.264 619.127 804.82 618.292L841.838 551.68C841.745 551.68 841.559 551.587 841.466 551.494H841.374H841.281C840.91 551.402 840.539 551.309 840.26 551.309L840.724 551.401C839.796 551.309 838.776 551.401 837.848 551.772L729.117 597.417C727.818 597.974 726.798 598.995 726.241 600.294L799.718 620.425Z" fill="white"/>
<path d="M787.193 616.992L726.241 600.293C726.148 600.479 726.055 600.664 725.962 600.85C725.498 602.241 725.591 603.726 726.148 605.025L754.166 671.45C754.722 672.842 755.835 673.956 757.134 674.605L787.193 616.992Z" fill="#E8E8F7"/>
<path d="M873.103 626.733L873.01 626.919L873.103 626.733Z" fill="#E8E8F7"/>
<path d="M873.009 626.919C872.823 627.197 872.638 627.568 872.359 627.847C872.638 627.568 872.823 627.29 873.009 626.919Z" fill="#E8E8F7"/>
<path d="M841.837 551.68L811.129 606.88L873.566 625.713C873.473 626.084 873.287 626.363 873.102 626.734C873.566 625.899 873.751 624.971 873.844 624.136C873.937 623.208 873.751 622.28 873.38 621.445L845.455 555.019C845.084 554.277 844.62 553.535 844.064 552.978C843.321 552.422 842.579 551.958 841.837 551.68Z" fill="#E8E8F7"/>
<path d="M842.486 551.958C842.301 551.865 842.115 551.865 841.93 551.772C842.115 551.865 842.301 551.865 842.486 551.958Z" fill="#E8E8F7"/>
<path d="M499.316 892.346C498.481 891.325 497.275 890.583 495.883 890.305C494.492 890.027 493.1 890.305 491.987 891.047L401.254 943.186C401.811 944.114 402.553 944.949 403.388 945.598C404.316 946.247 405.336 946.619 406.356 946.804L560.825 973.894C561.938 974.08 563.052 973.987 564.072 973.709C565.093 973.43 566.113 972.874 566.948 972.224L499.316 892.346Z" fill="#D5D5ED"/>
<path d="M584.854 866.647C584.668 866.462 584.575 866.276 584.482 866.184C584.668 866.276 584.668 866.462 584.854 866.647Z" fill="white"/>
<path d="M488.183 913.128C489.111 914.055 490.317 914.705 491.616 914.891C492.915 915.169 494.213 914.984 495.419 914.427L584.854 866.648C584.761 866.463 584.668 866.277 584.482 866.185L584.39 866.092L584.297 865.999C583.926 865.628 583.555 865.349 583.184 865.071C583.369 865.164 583.555 865.349 583.74 865.535C582.72 864.7 581.514 864.143 580.215 863.865L425.654 836.775C423.798 836.497 421.85 836.868 420.272 837.888L488.183 913.128Z" fill="white"/>
<path d="M476.586 900.232L420.365 837.702C420.087 837.888 419.901 837.98 419.623 838.166C418.139 839.372 417.118 841.042 416.747 842.99L400.141 937.434C399.77 939.382 400.141 941.423 401.161 943.093L476.586 900.232Z" fill="#E8E8F7"/>
<path d="M565.742 973.06L565.464 973.245L565.742 973.06Z" fill="#E8E8F7"/>
<path d="M565.464 973.151C565 973.337 564.536 973.523 564.072 973.708C564.629 973.615 565 973.43 565.464 973.151Z" fill="#E8E8F7"/>
<path d="M584.854 866.647L510.728 906.262L566.949 972.224C566.578 972.502 566.207 972.873 565.743 973.059C566.856 972.409 567.784 971.574 568.433 970.647C569.175 969.626 569.639 968.513 569.825 967.307L586.338 872.863C586.524 871.75 586.524 870.636 586.246 869.616C586.06 868.503 585.504 867.482 584.854 866.647Z" fill="#E8E8F7"/>
<path d="M585.317 867.297C585.132 867.018 585.039 866.833 584.854 866.647C585.039 866.833 585.225 867.018 585.317 867.297Z" fill="#E8E8F7"/>
<path d="M491.244 830.466C491.151 830.652 490.966 830.837 490.78 830.93C490.409 831.115 490.038 831.208 489.574 831.115C489.11 831.022 488.832 830.744 488.554 830.466C486.791 827.776 485.307 824.899 484.194 821.931C484.101 821.745 484.101 821.559 484.008 821.281C484.008 821.096 484.008 820.817 484.101 820.632C484.193 820.446 484.286 820.261 484.472 820.075C484.657 819.89 484.843 819.797 485.028 819.704C485.214 819.611 485.492 819.611 485.678 819.611C485.863 819.611 486.142 819.704 486.327 819.797C486.513 819.89 486.698 820.075 486.884 820.168C486.977 820.354 487.162 820.539 487.162 820.725C488.183 823.508 489.574 826.198 491.244 828.703C491.43 828.981 491.523 829.26 491.43 829.538C491.523 829.909 491.43 830.188 491.244 830.466Z" fill="#110580"/>
<path d="M709.17 673.028C709.077 673.214 708.984 673.306 708.799 673.399L706.943 674.791C702.583 677.945 698.037 681.285 693.213 684.625C693.027 684.718 692.842 684.81 692.656 684.903C692.471 684.903 692.193 684.903 692.007 684.903C691.822 684.903 691.636 684.81 691.45 684.718C691.265 684.625 691.079 684.439 690.986 684.254C690.894 684.068 690.801 683.883 690.708 683.697C690.708 683.512 690.708 683.326 690.708 683.047C690.708 682.862 690.801 682.677 690.986 682.491C691.079 682.306 691.265 682.213 691.45 682.027C696.275 678.687 700.82 675.44 705.181 672.286L707.036 670.894C707.222 670.802 707.407 670.709 707.593 670.616C707.778 670.523 707.964 670.523 708.243 670.616C708.428 670.616 708.613 670.709 708.799 670.802C708.984 670.894 709.17 671.08 709.263 671.265C709.448 671.544 709.541 671.822 709.541 672.193C709.448 672.472 709.356 672.843 709.17 673.028ZM677.256 694.459C677.163 694.645 676.978 694.83 676.699 694.923C671.04 698.17 665.195 700.953 659.258 703.365C659.072 703.458 658.794 703.551 658.608 703.551C658.423 703.551 658.144 703.551 657.959 703.458C657.773 703.365 657.588 703.272 657.402 703.087C657.217 702.901 657.124 702.716 657.031 702.53C656.938 702.344 656.938 702.159 656.938 701.881C656.938 701.695 657.031 701.417 657.124 701.231C657.217 701.046 657.309 700.86 657.495 700.675C657.681 700.489 657.866 700.396 658.052 700.396C663.896 698.077 669.648 695.294 675.122 692.14C675.308 692.047 675.493 691.954 675.679 691.954C675.864 691.954 676.142 691.954 676.328 692.047C676.513 692.14 676.699 692.232 676.885 692.325C677.07 692.418 677.163 692.603 677.256 692.789C677.441 693.067 677.441 693.346 677.441 693.624C677.441 693.995 677.348 694.273 677.256 694.459ZM641.631 708.468C641.538 708.653 641.352 708.839 641.167 708.932C640.981 709.025 640.796 709.117 640.61 709.21C634.209 710.509 627.714 711.158 621.22 711.158C620.756 711.158 620.386 710.973 620.107 710.694C619.829 710.416 619.643 709.952 619.643 709.581C619.643 709.395 619.643 709.21 619.736 708.932C619.829 708.746 619.922 708.561 620.107 708.468C620.293 708.282 620.478 708.189 620.664 708.096C620.849 708.004 621.035 708.004 621.313 708.004C627.622 708.004 633.931 707.447 640.054 706.149C640.332 706.056 640.703 706.148 640.981 706.241C641.26 706.334 641.538 706.519 641.723 706.798C641.909 707.076 642.002 707.354 642.002 707.633C641.816 707.818 641.723 708.19 641.631 708.468ZM603.408 708.096C603.222 708.375 602.944 708.56 602.666 708.653C602.387 708.746 602.016 708.839 601.738 708.746C595.336 707.354 589.121 705.221 583.276 702.438C583.09 702.345 582.905 702.252 582.719 702.066C582.626 701.881 582.441 701.695 582.441 701.51C582.441 701.324 582.348 701.139 582.348 700.86C582.348 700.675 582.441 700.489 582.534 700.304C582.627 700.118 582.719 699.932 582.905 699.84C583.09 699.654 583.276 699.562 583.462 699.562C583.647 699.469 583.832 699.469 584.111 699.469C584.296 699.469 584.575 699.562 584.76 699.654C590.42 702.345 596.45 704.385 602.573 705.777C602.944 705.87 603.315 706.148 603.593 706.427C603.779 706.798 603.872 707.169 603.779 707.633C603.686 707.725 603.594 707.911 603.408 708.096ZM592.182 688.243C590.234 691.212 588.1 694.088 585.688 696.778C585.503 696.964 585.41 697.057 585.224 697.149C585.039 697.242 584.853 697.335 584.575 697.335C584.389 697.335 584.111 697.335 583.925 697.242C583.74 697.149 583.554 697.056 583.369 696.964C583.183 696.871 583.09 696.685 582.998 696.5C582.905 696.314 582.812 696.129 582.812 695.943C582.812 695.758 582.812 695.572 582.905 695.294C582.998 695.016 583.09 694.923 583.183 694.737C585.502 692.139 587.544 689.449 589.399 686.573C590.976 684.161 592.368 681.749 593.574 679.151C593.667 678.966 593.759 678.78 593.945 678.595C594.13 678.409 594.316 678.316 594.502 678.224C594.687 678.131 594.965 678.131 595.151 678.131C595.336 678.131 595.522 678.224 595.8 678.316C595.986 678.409 596.171 678.502 596.264 678.687C596.45 678.873 596.542 679.059 596.635 679.244C596.728 679.43 596.728 679.615 596.728 679.893C596.728 680.079 596.635 680.357 596.542 680.543C595.244 683.141 593.852 685.738 592.182 688.243ZM571.679 709.488C571.586 709.674 571.494 709.767 571.308 709.86C566.113 713.756 560.824 717.374 555.258 720.714C554.887 720.899 554.516 720.992 554.052 720.9C553.588 720.807 553.31 720.528 553.031 720.157C552.846 719.786 552.753 719.322 552.846 718.951C552.939 718.58 553.217 718.209 553.588 717.931C560.082 713.941 564.999 710.601 569.453 707.262C569.731 706.983 570.102 706.891 570.473 706.891C570.844 706.891 571.215 707.076 571.493 707.354C571.772 707.633 571.957 708.004 571.957 708.375C571.957 708.746 571.865 709.117 571.679 709.488ZM601.645 662.266C601.459 662.545 601.181 662.823 600.81 662.916C600.439 663.009 600.068 663.009 599.789 662.916C599.418 662.823 599.14 662.545 598.955 662.266C598.769 661.988 598.676 661.617 598.676 661.246C598.955 657.999 598.769 654.659 598.305 651.504C597.842 648.721 596.914 645.938 595.707 643.34C595.522 642.969 595.522 642.506 595.615 642.135C595.8 641.763 596.079 641.392 596.45 641.207C596.821 641.021 597.285 641.021 597.656 641.114C598.027 641.207 598.398 641.578 598.584 641.949C599.975 644.825 600.903 647.794 601.46 650.948C602.016 654.473 602.202 657.999 601.923 661.524C601.923 661.71 601.83 661.988 601.645 662.266ZM569.174 691.583C569.174 691.676 569.082 691.676 569.082 691.769C568.803 692.047 568.432 692.325 568.061 692.325C567.597 692.325 567.226 692.232 566.948 691.954C561.845 687.779 557.485 682.676 554.145 677.017C554.052 676.832 553.959 676.646 553.959 676.461C553.959 676.275 553.959 675.997 553.959 675.811C554.052 675.626 554.145 675.44 554.238 675.255C554.331 675.069 554.516 674.976 554.702 674.884C554.887 674.791 555.072 674.698 555.351 674.698C555.536 674.698 555.815 674.698 556 674.698C556.186 674.791 556.372 674.884 556.557 674.976C556.743 675.069 556.835 675.255 556.928 675.44C560.175 680.821 564.257 685.552 569.082 689.542C569.36 689.82 569.545 690.191 569.638 690.562C569.452 690.841 569.36 691.212 569.174 691.583ZM539.208 730.084C539.115 730.27 538.93 730.455 538.651 730.548C536.703 731.754 534.848 732.867 532.992 734.073C529.281 736.392 525.941 738.712 522.787 740.939C522.602 741.032 522.416 741.124 522.231 741.217C522.045 741.31 521.767 741.31 521.581 741.217C521.396 741.217 521.21 741.124 521.024 741.031C520.839 740.938 520.653 740.753 520.561 740.567C520.468 740.382 520.375 740.197 520.282 740.011C520.19 739.825 520.19 739.547 520.282 739.361C520.282 739.176 520.375 738.99 520.561 738.805C520.653 738.619 520.839 738.434 521.024 738.341C524.272 736.021 527.612 733.702 531.415 731.29C533.364 730.084 535.219 728.878 537.167 727.672C537.445 727.486 537.817 727.394 538.188 727.394C538.559 727.394 538.93 727.579 539.115 727.858C539.394 728.136 539.579 728.414 539.579 728.785C539.579 729.342 539.487 729.713 539.208 730.084ZM483.822 803.375C483.636 803.561 483.451 803.747 483.266 803.932C482.987 804.025 482.709 804.117 482.523 804.117C482.338 804.117 482.06 804.025 481.874 804.025C481.689 803.932 481.503 803.839 481.317 803.654C481.132 803.468 481.039 803.376 480.946 803.097C480.854 802.912 480.854 802.726 480.854 802.448C481.039 795.861 482.152 789.367 484.286 783.151C484.379 782.78 484.75 782.409 485.028 782.223C485.399 782.038 485.863 782.038 486.234 782.13C486.605 782.223 486.976 782.594 487.162 782.965C487.348 783.336 487.348 783.8 487.255 784.171C485.214 790.109 484.101 796.232 484.008 802.541C484.101 802.819 484.008 803.097 483.822 803.375ZM508.407 752.907C508.314 752.999 508.222 753.092 508.129 753.185C503.583 757.545 499.501 762.369 495.883 767.472C495.604 767.843 495.234 768.029 494.862 768.121C494.399 768.214 494.027 768.122 493.656 767.843C493.285 767.658 493.1 767.286 493.007 766.823C492.914 766.359 493.007 765.987 493.192 765.616C496.903 760.235 501.171 755.318 505.902 750.865C506.088 750.68 506.274 750.587 506.459 750.494C506.645 750.402 506.83 750.401 507.108 750.401C507.294 750.401 507.572 750.402 507.758 750.494C507.944 750.587 508.129 750.68 508.315 750.865C508.593 751.144 508.779 751.422 508.779 751.793C508.686 752.257 508.593 752.628 508.407 752.907ZM585.873 629.331C585.688 629.703 585.317 629.888 584.946 629.981C584.575 630.074 584.111 629.981 583.833 629.795C579.565 627.198 574.555 626.177 569.545 627.012C568.618 627.198 567.597 627.476 566.669 627.755C566.484 627.847 566.205 627.847 566.02 627.847C565.834 627.847 565.649 627.754 565.463 627.662C565.278 627.569 565.092 627.476 564.907 627.291C564.814 627.105 564.628 626.92 564.628 626.734C564.535 626.548 564.535 626.363 564.535 626.084C564.535 625.899 564.628 625.713 564.721 625.528C564.814 625.342 564.907 625.157 565.092 625.064C565.278 624.878 565.463 624.786 565.649 624.786C566.762 624.415 567.875 624.136 568.989 623.858C574.648 622.837 580.492 623.951 585.409 627.012C585.781 627.198 586.059 627.569 586.152 627.94C586.152 628.497 586.152 628.96 585.873 629.331ZM550.712 659.019C550.527 659.297 550.248 659.483 549.97 659.669C549.599 659.762 549.321 659.854 549.042 659.762C548.671 659.669 548.393 659.483 548.207 659.205C548.022 658.927 547.836 658.648 547.836 658.277C547.279 651.597 548.486 644.825 551.269 638.795C551.454 638.423 551.825 638.145 552.197 637.96C552.568 637.867 553.031 637.867 553.402 638.052C553.774 638.238 554.052 638.516 554.238 638.98C554.331 639.351 554.33 639.815 554.145 640.186C551.547 645.753 550.434 651.968 550.991 658.091C550.991 658.277 550.898 658.648 550.712 659.019Z" fill="#110580"/>
<path d="M733.663 658.462C733.477 658.74 733.106 659.019 732.735 659.112C729.952 659.947 727.168 661.153 724.663 662.73C724.292 662.915 723.829 663.008 723.457 662.916C723.086 662.823 722.715 662.544 722.53 662.173C722.344 661.802 722.251 661.338 722.344 660.967C722.437 660.596 722.715 660.225 723.086 660.039C725.87 658.37 728.838 657.071 731.992 656.143C732.363 656.05 732.828 656.143 733.199 656.329C733.57 656.514 733.848 656.885 733.941 657.256C734.033 657.442 734.033 657.72 733.941 657.906C733.848 658.091 733.848 658.277 733.663 658.462Z" fill="#110580"/>
<path d="M458.494 853.381C466.937 853.381 473.802 846.516 473.802 838.073C473.802 829.631 466.937 822.766 458.494 822.766C450.052 822.766 443.187 829.631 443.187 838.073C443.187 846.516 450.052 853.381 458.494 853.381Z" fill="#FF5856"/>
<path d="M748.043 597.324C754.352 597.324 759.454 592.222 759.454 585.913C759.454 579.605 754.352 574.502 748.043 574.502C741.735 574.502 736.632 579.605 736.632 585.913C736.632 592.222 741.735 597.324 748.043 597.324Z" fill="#FF5856"/>
<path d="M697.759 781.296C696.832 774.245 691.729 768.401 686.163 763.947C670.206 751.608 648.589 747.434 628.643 750.681C621.221 751.887 613.706 754.113 607.491 758.381C594.688 767.194 589.121 784.914 594.131 799.665C594.873 801.242 595.987 802.727 597.286 803.933C591.07 815.715 587.451 824.436 582.163 836.589C594.502 827.219 607.769 819.148 621.778 812.468L623.54 813.396C640.24 823.601 662.32 818.591 679.205 808.665C689.224 802.634 699.244 792.893 697.759 781.296Z" fill="#FCFAF8"/>
<path d="M621.963 789.645C625.303 789.645 628.086 787.047 628.086 783.8C628.086 780.553 625.396 777.955 621.963 777.955C618.623 777.955 615.84 780.553 615.84 783.8C615.933 787.047 618.623 789.645 621.963 789.645Z" fill="#D6D7F0"/>
<path d="M643.208 789.645C646.548 789.645 649.331 787.047 649.331 783.8C649.331 780.553 646.641 777.955 643.208 777.955C639.868 777.955 637.085 780.553 637.085 783.8C637.178 787.047 639.868 789.645 643.208 789.645Z" fill="#D6D7F0"/>
<path d="M663.062 789.645C666.402 789.645 669.185 787.047 669.185 783.8C669.185 780.553 666.494 777.955 663.062 777.955C659.722 777.955 656.938 780.553 656.938 783.8C656.938 787.047 659.629 789.645 663.062 789.645Z" fill="#D6D7F0"/>
<path d="M666.309 807.828C670.854 794.283 684.956 786.49 698.594 782.222C730.137 772.388 764.092 774.336 794.337 787.603C808.345 793.819 821.891 803.189 827.921 817.198C833.302 829.351 832.096 843.917 825.973 855.699C819.942 867.481 809.273 876.666 797.213 882.232C801.387 892.994 807.789 906.168 812.056 916.93L786.358 901.808C782.09 899.117 777.452 896.798 772.628 895.128C765.948 893.087 758.897 893.18 751.939 892.809C732.549 891.695 713.066 885.943 697.202 874.625C681.338 863.306 669.184 846.329 665.659 827.218C664.453 820.816 664.267 814.043 666.309 807.828Z" fill="white"/>
<path d="M701.935 814.88H794.152C796.286 814.88 797.956 813.21 797.956 811.076C797.956 808.942 796.193 807.272 794.152 807.272H701.935C699.801 807.272 698.131 808.942 698.131 811.076C698.131 813.21 699.801 814.88 701.935 814.88Z" fill="#D6D7F0"/>
<path d="M701.935 833.156H763.908C766.042 833.156 767.711 831.486 767.711 829.353C767.711 827.219 766.042 825.549 763.908 825.549H701.935C699.801 825.549 698.131 827.219 698.131 829.353C698.131 831.486 699.801 833.156 701.935 833.156Z" fill="#D6D7F0"/>
<path d="M701.935 851.34H742.477C744.611 851.34 746.281 849.67 746.281 847.536C746.281 845.402 744.611 843.732 742.477 843.732H701.935C699.801 843.732 698.131 845.402 698.131 847.536C698.131 849.67 699.801 851.34 701.935 851.34Z" fill="#D6D7F0"/>
<path d="M786.637 843.732H761.216C759.083 843.732 757.413 845.402 757.413 847.536C757.413 849.67 759.175 851.34 761.216 851.34H786.637C788.771 851.34 790.44 849.67 790.44 847.536C790.44 845.402 788.678 843.732 786.637 843.732Z" fill="#D6D7F0"/>
<path d="M609.16 613.374C609.16 613.374 611.757 598.994 611.015 598.716L512.396 566.895L609.16 613.374Z" fill="#4E53BA"/>
<path d="M631.796 580.811L538.373 567.822L620.478 563.648L608.139 545L512.396 566.895L652.485 612.075L631.796 580.811Z" fill="#868AE0"/>
<path d="M613.984 578.306L620.385 563.555L538.28 567.73L613.984 578.306Z" fill="#4E53BA"/>
<path d="M708.799 915.169C708.335 915.076 693.955 925.003 693.955 925.003L727.632 955.711L686.997 931.404L671.504 947.918L750.918 971.297L708.799 915.169Z" fill="#868AE0"/>
<path d="M692.842 934.929L693.862 924.909L727.539 955.617L692.842 934.929Z" fill="#4E53BA"/>
<path d="M853.527 744.371C853.619 742.794 853.62 735.743 850.651 736.114C844.992 736.764 839.054 739.639 833.859 743.35C838.776 720.064 838.59 695.943 833.395 672.657C832.653 669.039 829.869 668.296 827.736 671.172C825.231 674.605 824.21 680.821 825.045 684.903C829.035 704.107 828.571 723.961 823.561 742.886C818.737 732.96 811.222 721.363 806.305 729.806C804.542 733.238 803.985 737.135 804.82 740.939C805.284 742.98 806.212 744.928 807.975 744.371C810.758 745.206 813.634 752.164 814.84 754.391C816.974 758.473 818.736 762.74 820.128 767.193C820.221 767.565 820.406 768.028 820.592 768.399C821.334 770.997 823.004 773.688 825.787 771.09C829.22 767.657 832.931 764.503 836.827 761.627C841.002 758.751 845.548 756.803 849.723 754.019C852.599 752.071 853.341 747.618 853.527 744.371Z" fill="#EBDBCD"/>
<path d="M478.72 665.421C474.638 656.7 478.07 651.226 480.761 642.413C481.874 638.702 482.245 634.805 481.781 630.909C482.06 626.456 481.225 622.466 478.349 622.837L477.421 623.023C477.05 622.93 476.586 622.93 476.215 623.023C475.844 623.116 475.473 623.302 475.194 623.58C470.092 625.157 464.989 628.682 460.072 630.723C453.3 633.599 446.249 635.455 439.291 637.96C433.817 639.908 433.539 662.174 439.384 661.339C444.208 660.596 449.032 659.298 453.671 657.628C437.621 683.79 425.189 712.086 420.829 742.702C420.458 745.578 419.715 752.999 423.055 754.669C426.395 756.339 428.065 750.402 428.344 748.175C432.982 717.467 449.496 690.841 465.731 664.771C466.288 672.286 469.35 679.523 474.36 685.182C477.143 688.243 479.741 680.265 480.019 679.151C481.039 674.606 480.668 669.781 478.72 665.421Z" fill="#EBDBCD"/>
<path d="M1262.43 925.837C1262.24 925.744 1262.06 925.652 1261.96 925.466C1261.87 925.28 1261.78 925.095 1261.78 924.909C1261.78 924.631 1261.87 924.353 1262.06 924.167C1262.24 923.981 1262.52 923.889 1262.8 923.889H1267.81V918.879C1267.81 918.693 1267.81 918.601 1267.81 918.415C1267.9 918.23 1267.9 918.137 1267.99 918.044C1268.09 917.951 1268.27 917.858 1268.36 917.766C1268.46 917.673 1268.64 917.673 1268.83 917.673C1269.01 917.673 1269.11 917.673 1269.29 917.766C1269.38 917.858 1269.57 917.951 1269.66 918.044C1269.76 918.137 1269.85 918.322 1269.85 918.415C1269.94 918.601 1269.94 918.693 1269.94 918.879V925.93H1262.89C1262.71 925.837 1262.61 925.837 1262.43 925.837Z" fill="#110580"/>
<path d="M1159.73 925.744C1159.54 925.651 1159.36 925.559 1159.26 925.373C1159.17 925.187 1159.08 925.002 1159.08 924.817C1159.08 924.538 1159.17 924.26 1159.36 924.074C1159.54 923.889 1159.82 923.796 1160.1 923.796H1172.99C1173.27 923.796 1173.46 923.981 1173.64 924.167C1173.83 924.352 1173.92 924.631 1173.92 924.817C1173.92 925.002 1173.83 925.28 1173.64 925.466C1173.46 925.651 1173.27 925.744 1172.99 925.837H1160.1C1160 925.837 1159.91 925.837 1159.73 925.744ZM1185.42 925.744C1185.24 925.651 1185.05 925.466 1184.96 925.28C1184.87 925.095 1184.78 924.816 1184.87 924.631C1184.96 924.352 1185.05 924.167 1185.24 924.074C1185.42 923.889 1185.7 923.889 1185.89 923.889H1198.78C1199.06 923.889 1199.25 924.074 1199.43 924.26C1199.62 924.445 1199.71 924.724 1199.71 924.909C1199.71 925.187 1199.62 925.373 1199.43 925.559C1199.25 925.744 1199.06 925.837 1198.78 925.93H1185.98C1185.7 925.837 1185.52 925.837 1185.42 925.744ZM1211.12 925.744C1210.94 925.651 1210.75 925.559 1210.66 925.373C1210.57 925.187 1210.47 925.002 1210.47 924.817C1210.47 924.538 1210.57 924.26 1210.75 924.074C1210.94 923.889 1211.22 923.796 1211.49 923.796H1224.39C1224.48 923.796 1224.67 923.796 1224.85 923.796C1224.95 923.796 1225.13 923.889 1225.22 923.981C1225.32 924.074 1225.41 924.167 1225.5 924.353C1225.6 924.445 1225.6 924.631 1225.6 924.817C1225.6 925.002 1225.6 925.095 1225.5 925.28C1225.41 925.373 1225.32 925.559 1225.22 925.651C1225.13 925.744 1224.95 925.837 1224.85 925.837C1224.67 925.837 1224.58 925.93 1224.39 925.837H1211.49C1211.4 925.837 1211.22 925.837 1211.12 925.744ZM1236.82 925.744C1236.64 925.651 1236.45 925.559 1236.36 925.373C1236.26 925.187 1236.17 925.002 1236.17 924.817C1236.17 924.724 1236.17 924.538 1236.26 924.445C1236.36 924.352 1236.36 924.167 1236.45 924.074C1236.54 923.981 1236.64 923.889 1236.82 923.889C1236.91 923.796 1237.1 923.796 1237.19 923.796H1250.09C1250.37 923.796 1250.64 923.889 1250.83 924.074C1251.02 924.26 1251.11 924.538 1251.11 924.817C1251.11 925.095 1251.02 925.373 1250.83 925.559C1250.64 925.744 1250.37 925.837 1250.09 925.837H1237.19C1237.1 925.837 1236.91 925.837 1236.82 925.744Z" fill="#110580"/>
<path d="M1140.24 925.837V918.693C1140.24 918.415 1140.43 918.23 1140.62 918.044C1140.8 917.858 1141.08 917.766 1141.36 917.766C1141.64 917.766 1141.82 917.858 1142.01 918.044C1142.19 918.23 1142.38 918.415 1142.38 918.693V923.703H1147.39C1147.57 923.703 1147.67 923.703 1147.85 923.703C1148.04 923.703 1148.13 923.796 1148.22 923.889C1148.32 923.982 1148.41 924.074 1148.5 924.26C1148.59 924.353 1148.59 924.538 1148.59 924.724C1148.59 924.909 1148.59 925.002 1148.5 925.188C1148.41 925.28 1148.32 925.466 1148.22 925.559C1148.13 925.651 1148.04 925.744 1147.85 925.744C1147.67 925.744 1147.57 925.837 1147.39 925.744H1140.24V925.837Z" fill="#110580"/>
<path d="M1140.8 907.653C1140.61 907.56 1140.43 907.467 1140.34 907.282C1140.24 907.096 1140.15 906.911 1140.15 906.725V894.757C1140.15 894.572 1140.15 894.479 1140.24 894.293C1140.24 894.108 1140.34 894.015 1140.43 893.922C1140.52 893.829 1140.61 893.737 1140.8 893.644C1140.89 893.551 1141.08 893.551 1141.26 893.551C1141.45 893.551 1141.54 893.551 1141.73 893.644C1141.82 893.737 1142.01 893.829 1142.1 893.922C1142.19 894.015 1142.28 894.2 1142.38 894.293C1142.38 894.479 1142.38 894.572 1142.38 894.757V906.725C1142.38 907.003 1142.28 907.281 1142.1 907.467C1141.91 907.653 1141.64 907.745 1141.36 907.745C1141.08 907.745 1140.99 907.746 1140.8 907.653ZM1140.8 883.717C1140.61 883.624 1140.43 883.531 1140.34 883.346C1140.24 883.16 1140.15 882.975 1140.15 882.789V870.729C1140.15 870.45 1140.34 870.265 1140.52 870.079C1140.71 869.894 1140.99 869.801 1141.26 869.801C1141.54 869.801 1141.73 869.894 1141.91 870.079C1142.1 870.265 1142.28 870.45 1142.28 870.729V882.789C1142.28 882.882 1142.28 883.068 1142.19 883.16C1142.1 883.253 1142.1 883.439 1141.91 883.532C1141.82 883.624 1141.73 883.717 1141.54 883.717C1141.45 883.81 1141.26 883.81 1141.17 883.81C1141.08 883.81 1140.99 883.81 1140.8 883.717ZM1140.8 859.688C1140.61 859.596 1140.43 859.503 1140.34 859.317C1140.24 859.132 1140.15 858.946 1140.15 858.761V846.793C1140.15 846.515 1140.34 846.329 1140.52 846.144C1140.71 845.958 1140.99 845.865 1141.26 845.865C1141.54 845.865 1141.73 845.958 1142.01 846.144C1142.19 846.329 1142.28 846.515 1142.38 846.793V858.761C1142.38 859.039 1142.28 859.317 1142.1 859.503C1141.91 859.689 1141.64 859.781 1141.36 859.781C1141.17 859.781 1140.99 859.781 1140.8 859.688Z" fill="#110580"/>
<path d="M1140.89 835.753C1140.71 835.66 1140.52 835.567 1140.43 835.382C1140.34 835.196 1140.24 835.011 1140.24 834.825V827.774H1147.3C1147.57 827.774 1147.76 827.96 1147.94 828.145C1148.13 828.331 1148.22 828.609 1148.22 828.795C1148.22 828.981 1148.13 829.259 1147.94 829.444C1147.76 829.63 1147.57 829.723 1147.3 829.815H1142.29V834.825C1142.29 835.104 1142.19 835.382 1142.01 835.567C1141.82 835.753 1141.54 835.846 1141.26 835.846C1141.17 835.846 1140.99 835.846 1140.89 835.753Z" fill="#110580"/>
<path d="M1159.73 829.723C1159.54 829.63 1159.36 829.537 1159.26 829.352C1159.17 829.166 1159.08 828.981 1159.08 828.795C1159.08 828.702 1159.08 828.517 1159.17 828.424C1159.17 828.331 1159.26 828.146 1159.36 828.053C1159.45 827.96 1159.54 827.867 1159.73 827.867C1159.82 827.775 1160 827.774 1160.1 827.774H1172.99C1173.18 827.774 1173.27 827.774 1173.46 827.774C1173.64 827.774 1173.74 827.867 1173.83 827.96C1173.92 828.053 1174.01 828.146 1174.11 828.331C1174.2 828.517 1174.2 828.609 1174.2 828.795C1174.2 828.981 1174.2 829.073 1174.11 829.259C1174.01 829.444 1173.92 829.537 1173.83 829.63C1173.74 829.723 1173.64 829.815 1173.46 829.815C1173.27 829.815 1173.18 829.908 1172.99 829.815H1160.1C1160 829.815 1159.91 829.723 1159.73 829.723ZM1185.42 829.723C1185.24 829.63 1185.05 829.537 1184.96 829.352C1184.87 829.166 1184.78 828.981 1184.78 828.795C1184.78 828.517 1184.87 828.238 1185.05 828.053C1185.24 827.867 1185.52 827.774 1185.8 827.774H1198.6C1198.88 827.774 1199.06 827.96 1199.25 828.145C1199.43 828.331 1199.53 828.609 1199.53 828.795C1199.53 828.981 1199.43 829.259 1199.25 829.444C1199.06 829.63 1198.88 829.723 1198.6 829.815H1185.7C1185.7 829.815 1185.61 829.816 1185.42 829.723ZM1211.12 829.723C1210.94 829.63 1210.75 829.537 1210.66 829.352C1210.57 829.166 1210.47 828.981 1210.47 828.795C1210.47 828.702 1210.47 828.517 1210.57 828.424C1210.66 828.331 1210.66 828.146 1210.75 828.053C1210.84 827.96 1210.94 827.867 1211.12 827.867C1211.22 827.775 1211.4 827.774 1211.49 827.774H1224.39C1224.67 827.774 1224.95 827.867 1225.13 828.053C1225.32 828.238 1225.41 828.517 1225.41 828.795C1225.41 828.888 1225.41 829.073 1225.32 829.166C1225.22 829.259 1225.22 829.444 1225.13 829.537C1225.04 829.63 1224.95 829.723 1224.76 829.723C1224.58 829.816 1224.48 829.815 1224.39 829.815H1211.49C1211.4 829.815 1211.31 829.816 1211.12 829.723ZM1236.82 829.723C1236.64 829.63 1236.45 829.537 1236.36 829.352C1236.26 829.166 1236.17 828.981 1236.17 828.795C1236.17 828.517 1236.27 828.238 1236.54 828.053C1236.73 827.867 1237.01 827.774 1237.29 827.774H1250.09C1250.37 827.774 1250.64 827.867 1250.83 828.053C1251.02 828.238 1251.11 828.517 1251.11 828.795C1251.11 829.073 1251.02 829.351 1250.83 829.537C1250.64 829.723 1250.37 829.815 1250.09 829.815H1237.29C1237.1 829.815 1237.01 829.816 1236.82 829.723Z" fill="#110580"/>
<path d="M1268.64 835.847C1268.46 835.754 1268.27 835.661 1268.18 835.476C1268.09 835.29 1267.99 835.104 1267.99 834.919V829.909H1262.98C1262.71 829.909 1262.52 829.723 1262.33 829.538C1262.15 829.352 1262.06 829.074 1262.06 828.889C1262.06 828.61 1262.15 828.425 1262.33 828.239C1262.52 828.054 1262.71 827.961 1262.98 827.868H1270.03V834.919C1270.03 835.012 1270.03 835.197 1269.94 835.29C1269.94 835.383 1269.85 835.568 1269.76 835.661C1269.66 835.754 1269.57 835.847 1269.38 835.847C1269.29 835.939 1269.11 835.939 1269.01 835.939C1268.83 835.939 1268.74 835.847 1268.64 835.847Z" fill="#110580"/>
<path d="M1268.46 907.745C1268.27 907.653 1268.09 907.56 1267.99 907.374C1267.9 907.189 1267.81 907.003 1267.81 906.818V894.85C1267.81 894.572 1267.99 894.386 1268.18 894.2C1268.36 894.015 1268.64 893.922 1268.92 893.922C1269.2 893.922 1269.38 894.015 1269.66 894.2C1269.85 894.386 1269.94 894.572 1270.03 894.85V906.818C1270.03 907.003 1269.94 907.189 1269.94 907.281C1269.85 907.467 1269.76 907.56 1269.57 907.653C1269.38 907.745 1269.29 907.838 1269.11 907.838C1268.83 907.838 1268.74 907.838 1268.46 907.745ZM1268.46 883.81C1268.27 883.717 1268.09 883.624 1267.99 883.439C1267.9 883.253 1267.81 883.067 1267.81 882.882V870.914C1267.81 870.729 1267.81 870.636 1267.81 870.45C1267.81 870.265 1267.9 870.172 1267.99 870.079C1268.09 869.987 1268.18 869.894 1268.36 869.801C1268.46 869.708 1268.64 869.708 1268.83 869.708C1268.92 869.708 1269.11 869.708 1269.2 869.801C1269.38 869.894 1269.48 869.987 1269.57 870.079C1269.66 870.172 1269.76 870.358 1269.76 870.45C1269.76 870.636 1269.85 870.729 1269.76 870.914V882.882C1269.76 883.16 1269.66 883.439 1269.48 883.624C1269.29 883.81 1269.01 883.903 1268.74 883.903C1268.64 883.903 1268.55 883.902 1268.46 883.81V883.81V883.81ZM1268.46 859.781C1268.27 859.689 1268.09 859.596 1267.99 859.41C1267.9 859.225 1267.81 859.039 1267.81 858.854V846.886C1267.81 846.7 1267.81 846.607 1267.81 846.422C1267.9 846.236 1267.9 846.143 1268.09 846.051C1268.18 845.958 1268.27 845.865 1268.46 845.772C1268.55 845.68 1268.74 845.68 1268.92 845.68C1269.11 845.68 1269.2 845.68 1269.38 845.772C1269.48 845.865 1269.66 845.958 1269.76 846.051C1269.85 846.143 1269.94 846.329 1269.94 846.422C1270.03 846.607 1270.03 846.7 1270.03 846.886V858.854C1270.03 858.946 1270.03 859.132 1269.94 859.225C1269.94 859.317 1269.85 859.503 1269.76 859.596C1269.66 859.689 1269.57 859.781 1269.38 859.781C1269.29 859.874 1269.11 859.874 1269.01 859.874C1268.92 859.874 1268.83 859.874 1268.74 859.781H1268.46Z" fill="#110580"/>
<path d="M1233.29 748.175H893.371C889.66 748.175 886.691 751.236 886.691 754.947V974.636C886.691 978.347 889.66 981.409 893.371 981.409H1233.29C1237.01 981.409 1239.97 978.347 1239.97 974.636V754.947C1240.07 751.144 1237.01 748.175 1233.29 748.175Z" fill="#D6D7F0"/>
<path d="M969.076 794.747H903.485C901.073 794.747 899.031 796.788 899.031 799.2V861.452C899.031 863.957 901.073 865.905 903.485 865.905H969.076C971.488 865.905 973.529 863.864 973.529 861.452V799.2C973.529 796.695 971.488 794.747 969.076 794.747Z" fill="#E8E8F7"/>
<path d="M1053.78 794.747H988.187C985.775 794.747 983.734 796.788 983.734 799.2V914.704C983.734 917.209 985.775 919.157 988.187 919.157H1053.78C1056.19 919.157 1058.23 917.116 1058.23 914.704V799.2C1058.23 796.695 1056.28 794.747 1053.78 794.747Z" fill="#E8E8F7"/>
<path d="M1138.57 794.747H1073.08C1070.57 794.747 1068.62 796.788 1068.62 799.2V946.989C1068.62 949.494 1070.57 951.442 1073.08 951.442H1138.57C1141.08 951.442 1143.03 949.401 1143.03 946.989V799.2C1143.03 796.695 1140.99 794.747 1138.57 794.747Z" fill="#E8E8F7"/>
<path d="M1223.28 794.747H1157.78C1155.27 794.747 1153.32 796.788 1153.32 799.2V885.202C1153.32 887.707 1155.27 889.655 1157.78 889.655H1223.28C1225.78 889.655 1227.73 887.614 1227.73 885.202V799.2C1227.73 796.695 1225.78 794.747 1223.28 794.747Z" fill="#E8E8F7"/>
<path d="M940.965 800.221H907.938C906.453 800.221 905.154 801.427 905.154 803.004C905.154 804.488 906.36 805.787 907.938 805.787H940.872C942.357 805.787 943.655 804.581 943.655 803.004C943.655 801.52 942.45 800.221 940.965 800.221Z" fill="#C3C6E6"/>
<path d="M1233.29 748.175H893.371C891.608 748.175 889.846 748.917 888.64 750.123C887.341 751.422 886.691 753.092 886.691 754.854V777.213H1240.07V754.854C1240.07 753.092 1239.32 751.329 1238.12 750.123C1236.82 748.824 1235.15 748.175 1233.29 748.175Z" fill="#007AC0"/>
<path d="M1070.38 754.02H1056.38C1055.45 754.02 1054.71 754.762 1054.71 755.69V769.791C1054.71 770.719 1055.45 771.461 1056.38 771.461H1070.48C1071.41 771.461 1072.15 770.719 1072.15 769.791V755.69C1072.05 754.762 1071.31 754.02 1070.38 754.02Z" fill="#D5D6F0"/>
<path d="M1061.57 756.061H1057.58C1057.12 756.061 1056.75 756.432 1056.75 756.896V768.678C1056.75 769.142 1057.12 769.513 1057.58 769.513H1061.57C1062.04 769.513 1062.31 769.142 1062.31 768.678V756.896C1062.31 756.432 1061.94 756.061 1061.57 756.061Z" fill="#007AC0"/>
<path d="M1069.18 756.061H1065.19C1064.72 756.061 1064.35 756.432 1064.35 756.896V763.668C1064.35 764.132 1064.72 764.503 1065.19 764.503H1069.18C1069.64 764.503 1069.92 764.132 1069.92 763.668V756.896C1070.01 756.432 1069.64 756.061 1069.18 756.061Z" fill="#007AC0"/>
<path d="M963.509 811.354H908.865C906.824 811.354 905.154 813.023 905.154 815.064V851.061C905.154 853.102 906.824 854.772 908.865 854.772H963.509C965.55 854.772 967.22 853.102 967.22 851.061V815.064C967.22 813.023 965.55 811.354 963.509 811.354Z" fill="white"/>
<path d="M1018.71 800.313H992.732C991.248 800.313 990.042 801.52 990.042 803.097C990.042 804.581 991.248 805.88 992.732 805.88H1018.71C1020.19 805.88 1021.49 804.674 1021.49 803.097C1021.49 801.52 1020.19 800.313 1018.71 800.313Z" fill="#C3C6E6"/>
<path d="M1048.3 811.354H993.661C991.62 811.354 989.95 813.023 989.95 815.064V837.052C989.95 839.093 991.62 840.763 993.661 840.763H1048.3C1050.35 840.763 1052.02 839.093 1052.02 837.052V815.064C1052.02 813.023 1050.35 811.354 1048.3 811.354Z" fill="white"/>
<path d="M1118.81 800.221H1077.44C1075.95 800.221 1074.75 801.427 1074.75 803.004C1074.75 804.488 1075.95 805.787 1077.44 805.787H1118.81C1120.3 805.787 1121.6 804.581 1121.6 803.004C1121.6 801.52 1120.39 800.221 1118.81 800.221Z" fill="#C3C6E6"/>
<path d="M1133.1 861.73H1078.46C1076.42 861.73 1074.75 863.4 1074.75 865.441V936.506C1074.75 938.547 1076.42 940.217 1078.46 940.217H1133.1C1135.14 940.217 1136.81 938.547 1136.81 936.506V865.441C1136.81 863.4 1135.14 861.73 1133.1 861.73Z" fill="white"/>
<path d="M1133.1 811.354H1078.46C1076.42 811.354 1074.75 813.023 1074.75 815.064V852.452C1074.75 854.493 1076.42 856.163 1078.46 856.163H1133.1C1135.14 856.163 1136.81 854.493 1136.81 852.452V815.064C1136.81 813.023 1135.14 811.354 1133.1 811.354Z" fill="white"/>
<path d="M1048.77 846.329H994.125C992.084 846.329 990.414 847.999 990.414 850.04V904.313C990.414 906.354 992.084 908.024 994.125 908.024H1048.77C1050.81 908.024 1052.48 906.354 1052.48 904.313V850.04C1052.48 847.999 1050.81 846.329 1048.77 846.329Z" fill="white"/>
<path d="M1182.64 800.221H1162.23C1160.75 800.221 1159.54 801.427 1159.54 803.004C1159.54 804.488 1160.75 805.787 1162.23 805.787H1182.64C1184.13 805.787 1185.42 804.581 1185.42 803.004C1185.42 801.52 1184.13 800.221 1182.64 800.221Z" fill="#C3C6E6"/>
<path d="M1217.8 811.354H1163.16C1161.12 811.354 1159.45 813.023 1159.45 815.064V839.835C1159.45 841.876 1161.12 843.546 1163.16 843.546H1217.8C1219.84 843.546 1221.51 841.876 1221.51 839.835V815.064C1221.51 813.023 1219.84 811.354 1217.8 811.354Z" fill="white"/>
<path d="M1217.8 849.112H1163.16C1161.12 849.112 1159.45 850.782 1159.45 852.823V874.996C1159.45 877.037 1161.12 878.707 1163.16 878.707H1217.8C1219.84 878.707 1221.51 877.037 1221.51 874.996V852.823C1221.51 850.782 1219.84 849.112 1217.8 849.112Z" fill="white"/>
<path d="M938.275 819.239H915.081C913.597 819.239 912.391 820.445 912.391 822.022C912.391 823.507 913.597 824.806 915.081 824.806H938.275C939.759 824.806 941.058 823.6 941.058 822.022C941.058 820.538 939.852 819.239 938.275 819.239Z" fill="#E8E8F7"/>
<path d="M948.016 831.579H915.081C913.597 831.579 912.391 832.785 912.391 834.362C912.391 835.847 913.597 837.146 915.081 837.146H948.016C949.501 837.146 950.799 835.939 950.799 834.362C950.799 832.878 949.593 831.579 948.016 831.579Z" fill="#E8E8F7"/>
<path d="M1107.87 900.695H1084.67C1083.19 900.695 1081.98 901.901 1081.98 903.479C1081.98 904.963 1083.19 906.262 1084.67 906.262H1107.87C1109.35 906.262 1110.65 905.056 1110.65 903.479C1110.56 901.901 1109.35 900.695 1107.87 900.695Z" fill="#E8E8F7"/>
<path d="M1117.61 913.034H1084.67C1083.19 913.034 1081.98 914.24 1081.98 915.817C1081.98 917.302 1083.19 918.601 1084.67 918.601H1117.61C1119.09 918.601 1120.39 917.395 1120.39 915.817C1120.3 914.24 1119.09 913.034 1117.61 913.034Z" fill="#E8E8F7"/>
<path d="M1102.21 925.373H1084.58C1083.09 925.373 1081.89 926.579 1081.89 928.156C1081.89 929.641 1083.09 930.939 1084.58 930.939H1102.21C1103.78 930.939 1104.99 929.733 1104.99 928.156C1104.99 926.579 1103.78 925.373 1102.21 925.373Z" fill="#E8E8F7"/>
<path d="M1023.07 854.772H999.877C998.392 854.772 997.187 855.979 997.187 857.556C997.187 859.04 998.392 860.339 999.877 860.339H1023.07C1024.55 860.339 1025.85 859.133 1025.85 857.556C1025.85 855.979 1024.55 854.772 1023.07 854.772Z" fill="#E8E8F7"/>
<path d="M1041.25 879.45H999.877C998.392 879.45 997.187 880.656 997.187 882.233C997.187 883.718 998.392 885.017 999.877 885.017H1041.25C1042.74 885.017 1044.04 883.811 1044.04 882.233C1043.94 880.656 1042.74 879.45 1041.25 879.45Z" fill="#E8E8F7"/>
<path d="M1023.07 891.789H999.877C998.392 891.789 997.187 892.995 997.187 894.572C997.187 896.057 998.392 897.355 999.877 897.355H1023.07C1024.55 897.355 1025.85 896.149 1025.85 894.572C1025.85 892.995 1024.55 891.789 1023.07 891.789Z" fill="#E8E8F7"/>
<path d="M1032.81 867.111H999.877C998.392 867.111 997.187 868.317 997.187 869.895C997.187 871.379 998.392 872.678 999.877 872.678H1032.81C1034.3 872.678 1035.59 871.472 1035.59 869.895C1035.59 868.317 1034.3 867.111 1032.81 867.111Z" fill="#E8E8F7"/>
<path d="M1107.87 831.579H1084.67C1083.19 831.579 1081.98 832.785 1081.98 834.362C1081.98 835.847 1083.19 837.146 1084.67 837.146H1107.87C1109.35 837.146 1110.65 835.939 1110.65 834.362C1110.56 832.878 1109.35 831.579 1107.87 831.579Z" fill="#E8E8F7"/>
<path d="M1125.68 819.239H1092.74C1091.26 819.239 1089.96 820.445 1089.96 822.022C1089.96 823.507 1091.17 824.806 1092.74 824.806H1125.68C1127.16 824.806 1128.46 823.6 1128.46 822.022C1128.37 820.538 1127.16 819.239 1125.68 819.239Z" fill="#E8E8F7"/>
<path d="M1192.57 831.579H1169.37C1167.89 831.579 1166.68 832.785 1166.68 834.362C1166.68 835.847 1167.89 837.146 1169.37 837.146H1192.57C1194.05 837.146 1195.35 835.939 1195.35 834.362C1195.35 832.878 1194.15 831.579 1192.57 831.579Z" fill="#E8E8F7"/>
<path d="M1202.31 819.239H1169.37C1167.89 819.239 1166.68 820.445 1166.68 822.022C1166.68 823.507 1167.89 824.806 1169.37 824.806H1202.31C1203.89 824.806 1205.09 823.6 1205.09 822.022C1205.09 820.538 1203.89 819.239 1202.31 819.239Z" fill="#E8E8F7"/>
<path d="M1207.6 857.092H1177.45C1175.96 857.092 1174.66 858.298 1174.66 859.875C1174.66 861.359 1175.87 862.658 1177.45 862.658H1207.6C1209.08 862.658 1210.38 861.452 1210.38 859.875C1210.38 858.298 1209.17 857.092 1207.6 857.092Z" fill="#E8E8F7"/>
<path d="M1032.81 819.239H999.877C998.392 819.239 997.187 820.445 997.187 822.022C997.187 823.507 998.392 824.806 999.877 824.806H1032.81C1034.3 824.806 1035.59 823.6 1035.59 822.022C1035.59 820.538 1034.3 819.239 1032.81 819.239Z" fill="#E8E8F7"/>
<path d="M1133.1 861.823H1078.46C1077.44 861.823 1076.51 862.194 1075.86 862.936C1075.12 863.679 1074.84 864.606 1074.84 865.534V892.81H1136.81V865.442C1136.81 864.421 1136.35 863.493 1135.7 862.844C1134.96 862.194 1134.03 861.823 1133.1 861.823Z" fill="#ACAFE0"/>
<path d="M1084.58 824.714C1086.06 824.714 1087.27 823.508 1087.27 822.024C1087.27 820.539 1086.06 819.333 1084.58 819.333C1083.09 819.333 1081.89 820.539 1081.89 822.024C1081.89 823.508 1083.09 824.714 1084.58 824.714Z" fill="#FF7A82"/>
<path d="M1169.37 862.473C1170.86 862.473 1172.07 861.267 1172.07 859.782C1172.07 858.298 1170.86 857.092 1169.37 857.092C1167.89 857.092 1166.68 858.298 1166.68 859.782C1166.68 861.267 1167.89 862.473 1169.37 862.473Z" fill="#FF7A82"/>
<path d="M1293.04 966.193H1134.86C1131.06 966.193 1128 969.255 1128 973.151V1050.34C1128 1054.14 1131.06 1057.3 1134.86 1057.3H1293.04C1296.85 1057.3 1300 1054.24 1300 1050.34V973.151C1300 969.255 1296.85 966.193 1293.04 966.193Z" fill="white"/>
<path d="M1260.76 993.098H1170.49C1169 993.098 1167.8 994.304 1167.8 995.881C1167.8 997.365 1169 998.664 1170.49 998.664H1260.76C1262.24 998.664 1263.45 997.458 1263.45 995.881C1263.45 994.304 1262.24 993.098 1260.76 993.098Z" fill="#E8E8F7"/>
<path d="M1227.27 1005.44H1170.49C1169 1005.44 1167.8 1006.64 1167.8 1008.22C1167.8 1009.7 1169 1011 1170.49 1011H1227.17C1228.66 1011 1229.96 1009.8 1229.96 1008.22C1229.96 1006.64 1228.75 1005.44 1227.27 1005.44Z" fill="#E8E8F7"/>
<path d="M1174.48 980.759H1144.33C1142.84 980.759 1141.54 981.965 1141.54 983.542C1141.54 985.026 1142.75 986.325 1144.33 986.325H1174.48C1175.96 986.325 1177.26 985.119 1177.26 983.542C1177.26 981.965 1175.96 980.759 1174.48 980.759Z" fill="#AAAAE3"/>
<path d="M1144.42 1022.32H1161.67V1042.55H1144.42C1143.68 1042.55 1142.93 1042.27 1142.38 1041.71C1141.82 1041.16 1141.54 1040.41 1141.54 1039.67V1025.2C1141.54 1024.46 1141.82 1023.71 1142.38 1023.16C1142.93 1022.69 1143.68 1022.32 1144.42 1022.32Z" fill="#E8E8F7"/>
<path d="M1154.53 1031.97H1152.21V1029.56C1152.21 1029.47 1152.12 1029.28 1152.03 1029.19C1151.93 1029.09 1151.84 1029 1151.65 1029C1151.47 1029 1151.38 1029.09 1151.28 1029.19C1151.19 1029.28 1151.19 1029.37 1151.19 1029.56V1031.97H1148.78C1148.69 1031.97 1148.5 1032.06 1148.41 1032.16C1148.31 1032.25 1148.22 1032.34 1148.22 1032.53C1148.22 1032.62 1148.31 1032.81 1148.41 1032.9C1148.5 1032.99 1148.59 1033.08 1148.78 1033.08H1151.19V1035.5C1151.19 1035.59 1151.19 1035.77 1151.28 1035.87C1151.38 1035.96 1151.47 1036.05 1151.65 1036.05C1151.75 1036.05 1151.93 1035.96 1152.03 1035.87C1152.12 1035.77 1152.21 1035.68 1152.21 1035.5V1033.08H1154.53C1154.62 1033.08 1154.81 1032.99 1154.9 1032.9C1154.99 1032.81 1154.99 1032.71 1154.99 1032.53C1154.99 1032.43 1154.99 1032.25 1154.9 1032.16C1154.81 1031.97 1154.62 1031.97 1154.53 1031.97Z" fill="#AAAAE3"/>
<path d="M1157.31 993.098H1143.58C1142.47 993.098 1141.54 994.025 1141.54 995.046V1008.96C1141.54 1010.08 1142.47 1010.91 1143.58 1010.91H1157.41C1158.52 1010.91 1159.45 1009.98 1159.45 1008.96V995.046C1159.35 993.933 1158.52 993.098 1157.31 993.098Z" fill="#FF7A82"/>
<path d="M1283.95 1023.43C1284.32 1023.43 1284.6 1023.62 1284.88 1023.81C1285.16 1024.08 1285.25 1024.36 1285.25 1024.73V1040.13C1285.25 1040.5 1285.16 1040.78 1284.88 1041.06C1284.6 1041.34 1284.32 1041.43 1283.95 1041.43H1143.95C1143.58 1041.43 1143.21 1041.25 1143.03 1041.06C1142.75 1040.78 1142.66 1040.5 1142.66 1040.13V1024.73C1142.66 1024.36 1142.84 1024.08 1143.03 1023.81C1143.3 1023.53 1143.58 1023.43 1143.95 1023.43H1283.95ZM1283.95 1022.41H1143.95C1143.3 1022.41 1142.75 1022.69 1142.28 1023.06C1141.82 1023.53 1141.54 1024.08 1141.54 1024.73V1040.13C1141.54 1040.78 1141.82 1041.34 1142.28 1041.8C1142.75 1042.27 1143.3 1042.45 1143.95 1042.45H1283.95C1284.6 1042.45 1285.16 1042.17 1285.62 1041.8C1286.08 1041.34 1286.36 1040.78 1286.36 1040.13V1024.73C1286.36 1024.08 1286.08 1023.53 1285.62 1023.06C1285.16 1022.6 1284.6 1022.41 1283.95 1022.41Z" fill="#E8E8F7"/>
<path opacity="0.3" d="M1088.75 850.32C1088.75 849.392 1088.57 848.557 1088.2 847.722C1087.83 846.887 1087.36 846.145 1086.71 845.495C1086.06 844.846 1085.32 844.382 1084.49 844.011C1083.65 843.64 1082.82 843.454 1081.89 843.454H886.6V846.237H1074.93C1075.77 846.237 1076.69 846.423 1077.53 846.794C1078.36 847.165 1079.11 847.629 1079.76 848.279C1080.4 848.928 1080.87 849.67 1081.15 850.505C1081.52 851.34 1081.7 852.175 1081.7 853.103V981.316H1088.66L1088.75 850.32Z" fill="#3B3FAD"/>
<path d="M780.188 870.914C780.095 871.007 780.002 871.1 779.909 871.1C779.631 871.192 779.445 871.192 779.167 871.1C778.889 871.007 778.703 870.821 778.61 870.543C777.868 868.78 777.312 866.832 776.94 864.977C776.94 864.884 776.94 864.698 776.94 864.605C776.94 864.513 777.033 864.327 777.126 864.234C777.219 864.142 777.312 864.049 777.404 863.956C777.497 863.863 777.59 863.863 777.775 863.771C777.868 863.771 778.054 863.771 778.147 863.771C778.239 863.771 778.425 863.863 778.518 863.956C778.61 864.049 778.703 864.142 778.796 864.234C778.889 864.327 778.889 864.42 778.981 864.605C779.353 866.368 779.816 868.131 780.559 869.801C780.651 869.986 780.651 870.172 780.651 870.357C780.466 870.543 780.373 870.729 780.188 870.914Z" fill="#110580"/>
<path d="M927.791 800.314C927.698 800.406 927.605 800.499 927.513 800.499L926.214 801.149C923.245 802.54 920.183 804.025 916.844 805.509C916.658 805.602 916.379 805.602 916.101 805.509C915.823 805.416 915.638 805.231 915.545 805.045C915.452 804.953 915.452 804.767 915.452 804.674C915.452 804.581 915.452 804.396 915.545 804.303C915.545 804.21 915.637 804.117 915.73 804.025C915.823 803.932 915.916 803.839 916.101 803.839C919.348 802.448 922.41 800.87 925.379 799.479L926.678 798.829C926.863 798.737 927.141 798.737 927.327 798.737C927.512 798.829 927.698 798.922 927.884 799.108C927.976 799.293 928.069 799.479 928.069 799.757C927.977 799.943 927.884 800.128 927.791 800.314ZM906.267 809.684C906.175 809.777 906.082 809.87 905.896 809.962C902.185 811.261 898.382 812.282 894.485 813.117C894.392 813.117 894.207 813.117 894.114 813.117C894.021 813.117 893.836 813.024 893.743 812.931C893.65 812.838 893.557 812.745 893.464 812.653C893.372 812.56 893.372 812.467 893.372 812.282C893.372 812.189 893.372 812.003 893.372 811.91C893.372 811.818 893.464 811.632 893.557 811.539C893.65 811.447 893.743 811.354 893.835 811.261C893.928 811.168 894.021 811.168 894.207 811.076C898.011 810.333 901.722 809.313 905.34 808.014C905.433 808.014 905.618 807.921 905.711 807.921C905.896 807.921 905.989 807.921 906.082 808.014C906.175 808.107 906.267 808.107 906.36 808.199C906.453 808.292 906.546 808.385 906.546 808.571C906.638 808.756 906.638 808.942 906.546 809.127C906.546 809.406 906.453 809.498 906.267 809.684ZM883.445 814.044C883.352 814.137 883.259 814.23 883.166 814.23C883.074 814.323 882.888 814.323 882.795 814.323C878.806 814.415 874.817 814.044 871.013 813.302C870.921 813.302 870.735 813.209 870.642 813.117C870.549 813.024 870.457 812.931 870.364 812.838C870.271 812.745 870.271 812.653 870.178 812.467C870.178 812.374 870.178 812.189 870.178 812.096C870.178 812.003 870.271 811.818 870.271 811.725C870.364 811.632 870.457 811.539 870.55 811.447C870.642 811.354 870.828 811.354 870.921 811.261C871.013 811.168 871.199 811.261 871.292 811.261C875.095 812.003 878.899 812.282 882.703 812.189C882.795 812.189 882.981 812.189 883.074 812.282C883.167 812.282 883.352 812.374 883.445 812.467C883.538 812.56 883.63 812.653 883.63 812.746C883.723 812.838 883.723 813.024 883.723 813.117C883.723 813.209 883.723 813.395 883.723 813.488C883.63 813.859 883.538 814.044 883.445 814.044ZM860.715 809.684C860.53 809.87 860.344 809.962 860.159 809.962C859.973 809.962 859.787 809.962 859.602 809.869C855.891 808.292 852.458 806.344 849.304 804.025C849.211 803.932 849.119 803.839 849.026 803.747C848.933 803.654 848.933 803.468 848.84 803.375C848.84 803.283 848.84 803.097 848.84 803.004C848.84 802.912 848.933 802.726 849.026 802.633C849.119 802.54 849.211 802.448 849.304 802.355C849.397 802.262 849.583 802.262 849.675 802.262C849.768 802.262 849.954 802.262 850.046 802.262C850.139 802.262 850.325 802.355 850.417 802.448C853.572 804.674 856.911 806.53 860.437 808.014C860.53 808.107 860.623 808.107 860.715 808.199C860.808 808.292 860.901 808.385 860.901 808.478C860.901 808.571 860.994 808.756 860.994 808.849C860.994 808.942 860.993 809.127 860.901 809.22C860.901 809.498 860.808 809.591 860.715 809.684ZM856.17 796.51C854.685 798.087 853.108 799.572 851.345 800.87C851.252 800.963 851.16 801.056 850.974 801.056C850.881 801.056 850.696 801.149 850.603 801.056C850.51 801.056 850.324 800.963 850.232 800.963C850.139 800.871 850.046 800.778 849.954 800.685C849.861 800.592 849.861 800.499 849.768 800.314C849.768 800.221 849.768 800.035 849.768 799.943C849.768 799.85 849.861 799.664 849.861 799.572C849.953 799.479 850.046 799.386 850.139 799.293C851.809 797.995 853.294 796.603 854.778 795.119C855.984 793.912 857.097 792.521 858.117 791.129C858.21 791.036 858.303 790.944 858.396 790.851C858.489 790.758 858.674 790.758 858.767 790.665C858.953 790.665 859.045 790.665 859.138 790.665C859.324 790.665 859.416 790.758 859.509 790.851C859.602 790.944 859.695 791.036 859.788 791.129C859.88 791.222 859.881 791.407 859.881 791.5C859.881 791.593 859.881 791.779 859.881 791.871C859.881 791.964 859.788 792.15 859.695 792.242C858.489 793.727 857.376 795.211 856.17 796.51ZM841.604 807.086C841.511 807.179 841.418 807.272 841.326 807.272C837.8 809.034 834.182 810.612 830.564 812.003C830.471 812.096 830.286 812.096 830.193 812.096C830.1 812.096 829.914 812.096 829.821 812.003C829.729 811.911 829.543 811.911 829.543 811.818C829.45 811.725 829.358 811.632 829.358 811.539C829.265 811.261 829.265 811.076 829.358 810.797C829.45 810.519 829.636 810.333 829.914 810.241C834.275 808.478 837.522 807.086 840.49 805.509C840.583 805.416 840.769 805.416 840.862 805.416C840.955 805.416 841.14 805.416 841.233 805.416C841.326 805.416 841.511 805.509 841.604 805.602C841.697 805.695 841.789 805.787 841.882 805.88C841.975 806.066 841.975 806.251 841.975 806.437C841.789 806.715 841.697 806.901 841.604 807.086ZM864.704 781.945C864.612 782.037 864.426 782.13 864.241 782.223C864.055 782.316 863.869 782.316 863.684 782.223C863.406 782.13 863.22 781.944 863.128 781.759C863.035 781.573 862.942 781.295 863.035 781.017C863.591 779.069 863.777 777.12 863.87 775.079C863.87 773.317 863.684 771.554 863.22 769.884C863.22 769.791 863.22 769.606 863.22 769.513C863.22 769.42 863.313 769.235 863.313 769.142C863.406 769.049 863.499 768.956 863.591 768.863C863.684 768.771 863.777 768.771 863.962 768.678C864.241 768.585 864.519 768.678 864.704 768.771C864.983 768.863 865.076 769.142 865.168 769.327C865.725 771.183 865.911 773.131 865.911 775.079C865.818 777.213 865.54 779.347 864.983 781.481C864.89 781.666 864.797 781.852 864.704 781.945ZM842.068 795.953C841.882 796.139 841.789 796.232 841.604 796.232C841.511 796.232 841.326 796.325 841.233 796.232C841.14 796.232 840.955 796.139 840.862 796.139C840.769 796.046 840.676 795.954 840.583 795.861C837.986 792.799 835.945 789.274 834.553 785.47C834.46 785.192 834.46 785.006 834.553 784.728C834.646 784.542 834.831 784.357 835.11 784.264C835.388 784.171 835.666 784.171 835.852 784.264C836.037 784.357 836.223 784.542 836.316 784.821C837.614 788.439 839.563 791.686 841.975 794.655C842.16 794.84 842.253 795.026 842.253 795.304C842.253 795.582 842.161 795.768 842.068 795.953ZM819.895 815.9C819.802 815.993 819.709 816.085 819.524 816.085L815.72 817.57C813.308 818.59 810.989 819.611 808.855 820.631C808.762 820.724 808.669 820.724 808.483 820.724C808.391 820.724 808.205 820.724 808.112 820.631C808.02 820.631 807.927 820.539 807.834 820.446C807.741 820.353 807.648 820.26 807.556 820.167C807.556 820.075 807.463 819.889 807.463 819.796C807.463 819.703 807.463 819.518 807.556 819.425C807.556 819.332 807.649 819.24 807.741 819.054C807.834 818.961 807.927 818.868 808.02 818.868C810.246 817.848 812.473 816.828 814.978 815.807C816.276 815.25 817.575 814.787 818.874 814.323C818.967 814.323 819.152 814.23 819.245 814.23C819.338 814.23 819.523 814.23 819.616 814.323C819.709 814.415 819.895 814.415 819.895 814.508C819.988 814.601 820.08 814.694 820.08 814.787C820.173 814.972 820.173 815.158 820.173 815.343C820.173 815.529 820.08 815.714 819.895 815.9ZM778.796 853.752C778.703 853.844 778.517 853.937 778.425 854.03C778.239 854.123 778.146 854.123 777.961 854.03C777.683 853.937 777.497 853.844 777.311 853.659C777.126 853.473 777.126 853.195 777.126 852.917C777.961 849.02 779.353 845.216 781.301 841.691C781.394 841.505 781.672 841.32 781.858 841.32C782.136 841.227 782.321 841.32 782.507 841.413C782.692 841.505 782.878 841.691 782.971 841.969C783.063 842.155 783.063 842.433 782.971 842.712C781.115 846.051 779.724 849.669 778.981 853.473C778.981 853.566 778.889 853.659 778.796 853.752ZM799.021 826.198L798.835 826.383C795.588 828.517 792.619 830.929 789.836 833.62C789.651 833.805 789.372 833.898 789.094 833.898C788.815 833.898 788.537 833.805 788.352 833.62C788.166 833.434 788.073 833.156 788.073 832.877C788.073 832.599 788.166 832.321 788.352 832.135C791.135 829.352 794.289 826.847 797.536 824.621C797.629 824.528 797.722 824.528 797.907 824.435C798.093 824.342 798.185 824.435 798.278 824.435C798.371 824.435 798.557 824.528 798.65 824.621C798.742 824.713 798.835 824.806 798.928 824.899C799.021 825.084 799.114 825.27 799.114 825.548C799.206 825.734 799.113 826.012 799.021 826.198ZM858.86 760.421C858.767 760.514 858.674 760.607 858.581 760.607C858.489 760.699 858.303 760.699 858.21 760.699C858.118 760.699 857.932 760.699 857.839 760.607C857.747 760.514 857.561 760.514 857.468 760.421C855.242 758.38 852.273 757.174 849.304 757.174C848.655 757.174 848.098 757.267 847.448 757.36C847.17 757.36 846.985 757.359 846.799 757.174C846.614 756.988 846.428 756.803 846.428 756.617C846.428 756.339 846.428 756.153 846.614 755.875C846.799 755.69 846.985 755.504 847.263 755.504C848.005 755.411 848.655 755.318 849.397 755.318C852.922 755.318 856.262 756.617 858.86 759.029C858.953 759.122 859.045 759.215 859.138 759.308C859.231 759.4 859.231 759.586 859.231 759.679C859.231 759.772 859.231 759.957 859.231 760.05C859.045 760.235 859.045 760.328 858.86 760.421ZM834.553 774.337C834.46 774.523 834.275 774.615 833.996 774.615C833.811 774.615 833.625 774.616 833.44 774.523C833.254 774.43 833.069 774.337 832.976 774.152C832.883 773.966 832.79 773.781 832.883 773.595C833.347 769.513 834.739 765.616 837.058 762.276C837.151 762.184 837.243 762.091 837.336 761.998C837.429 761.905 837.614 761.905 837.707 761.813C837.8 761.813 837.986 761.813 838.079 761.813C838.171 761.813 838.357 761.905 838.45 761.998C838.542 762.091 838.635 762.184 838.728 762.276C838.821 762.369 838.821 762.555 838.821 762.648C838.821 762.74 838.821 762.926 838.821 763.019C838.821 763.111 838.728 763.297 838.635 763.39C836.501 766.451 835.11 770.07 834.739 773.781C834.831 773.966 834.739 774.244 834.553 774.337Z" fill="#110580"/>
<path d="M944.026 794.284C943.841 794.47 943.656 794.562 943.377 794.562C941.615 794.748 939.852 795.212 938.089 795.861C937.903 795.954 937.625 795.954 937.347 795.768C937.069 795.676 936.976 795.49 936.883 795.212C936.79 794.933 936.79 794.748 936.883 794.47C936.976 794.284 937.161 794.099 937.439 794.006C939.295 793.264 941.243 792.8 943.192 792.614C943.284 792.614 943.47 792.614 943.563 792.614C943.655 792.614 943.748 792.707 943.841 792.8C943.934 792.893 944.026 792.985 944.119 793.078C944.212 793.171 944.212 793.356 944.212 793.449C944.212 793.635 944.212 793.727 944.212 793.82C944.212 794.006 944.119 794.098 944.026 794.284Z" fill="#110580"/>
<path d="M1075.02 846.423H735.1C731.389 846.423 728.42 849.484 728.42 853.195V1072.88C728.42 1076.59 731.389 1079.66 735.1 1079.66H1075.02C1078.73 1079.66 1081.7 1076.59 1081.7 1072.88V853.195C1081.7 849.391 1078.73 846.423 1075.02 846.423Z" fill="white"/>
<path d="M984.661 905.241H886.32C884.001 905.241 882.053 907.19 882.053 909.509V956.731C882.053 959.143 884.001 960.998 886.32 960.998H984.661C986.98 960.998 988.928 959.05 988.928 956.731V909.509C988.928 907.097 986.98 905.241 984.661 905.241Z" fill="#E8E8F7"/>
<path d="M1067.88 939.846H1016.67C1015.18 939.846 1013.89 941.052 1013.89 942.629V980.759C1013.89 982.336 1015.09 983.542 1016.67 983.542H1067.88C1069.46 983.542 1070.66 982.336 1070.66 980.759V942.629C1070.66 941.052 1069.46 939.846 1067.88 939.846Z" fill="#E8E8F7"/>
<path d="M735.192 1079.56H759.035V846.329H735.192C734.265 846.329 733.43 846.515 732.595 846.886C731.76 847.257 731.018 847.721 730.368 848.37C729.719 849.02 729.255 849.762 728.884 850.597C728.513 851.432 728.42 852.267 728.42 853.194V1072.88C728.42 1074.65 729.162 1076.41 730.368 1077.61C731.667 1078.82 733.337 1079.56 735.192 1079.56Z" fill="#453069"/>
<path d="M842.717 846.423H759.035V1079.56H842.717V846.423Z" fill="#573E82"/>
<path d="M750.593 864.606H736.77C735.656 864.606 734.821 865.534 734.821 866.555V880.471C734.821 881.584 735.749 882.419 736.77 882.419H750.593C751.706 882.419 752.541 881.491 752.541 880.471V866.555C752.634 865.534 751.706 864.606 750.593 864.606Z" fill="#FF7A82"/>
<path d="M872.591 876.853H858.768C857.654 876.853 856.819 877.78 856.819 878.801V892.717C856.819 893.83 857.654 894.665 858.768 894.665H872.591C873.704 894.665 874.539 893.737 874.539 892.717V878.801C874.539 877.688 873.704 876.853 872.591 876.853Z" fill="#868AE0"/>
<path d="M750.593 891.511H736.77C735.656 891.511 734.821 892.439 734.821 893.459V907.375C734.821 908.488 735.749 909.323 736.77 909.323H750.593C751.706 909.323 752.541 908.396 752.541 907.375V893.459C752.634 892.439 751.706 891.511 750.593 891.511Z" fill="#868AE0"/>
<path d="M750.593 919.528C750.871 919.528 751.057 919.621 751.242 919.807C751.428 919.992 751.521 920.178 751.521 920.456V934.372C751.521 934.65 751.428 934.836 751.242 935.022C751.057 935.207 750.871 935.3 750.593 935.3H736.862C736.584 935.3 736.398 935.207 736.213 935.022C736.027 934.836 735.935 934.65 735.935 934.372V920.456C735.935 920.178 736.027 919.992 736.213 919.807C736.398 919.621 736.584 919.528 736.862 919.528H750.593ZM750.593 918.508H736.77C736.213 918.508 735.749 918.693 735.378 919.064C735.007 919.435 734.821 919.899 734.821 920.456V934.372C734.821 934.929 735.007 935.393 735.378 935.764C735.749 936.135 736.213 936.32 736.77 936.32H750.593C751.15 936.32 751.613 936.135 751.984 935.764C752.356 935.393 752.541 934.929 752.541 934.372V920.456C752.541 919.899 752.356 919.435 751.984 919.064C751.706 918.693 751.15 918.508 750.593 918.508Z" fill="#745CA1"/>
<path d="M743.728 924.074C743.635 924.074 743.449 924.167 743.357 924.26C743.264 924.352 743.171 924.445 743.171 924.631V927.043H740.759C740.666 927.043 740.48 927.136 740.388 927.228C740.295 927.321 740.202 927.414 740.202 927.6C740.202 927.692 740.295 927.878 740.388 927.971C740.48 928.063 740.573 928.156 740.759 928.156H743.171V930.568C743.171 930.661 743.264 930.847 743.357 930.939C743.449 931.032 743.542 931.125 743.728 931.125C743.82 931.125 744.006 931.032 744.099 930.939C744.191 930.847 744.284 930.754 744.284 930.568V928.156H746.696C746.789 928.156 746.975 928.063 747.068 927.971C747.16 927.878 747.253 927.785 747.253 927.6C747.253 927.507 747.16 927.321 747.068 927.228C746.975 927.136 746.882 927.043 746.696 927.043H744.284V924.631C744.284 924.538 744.284 924.538 744.284 924.445C744.284 924.352 744.191 924.352 744.191 924.26C744.191 924.26 744.099 924.167 744.006 924.167C743.913 924.167 743.728 924.074 743.728 924.074Z" fill="#E8E8F7"/>
<path d="M816.277 894.386H770.725C769.24 894.386 767.941 895.592 767.941 897.169C767.941 898.653 769.147 899.952 770.725 899.952H816.277C817.761 899.952 819.06 898.746 819.06 897.169C819.06 895.592 817.854 894.386 816.277 894.386Z" fill="#C0AFDB"/>
<path d="M800.969 864.606H770.725C769.24 864.606 767.941 865.813 767.941 867.39C767.941 868.874 769.147 870.173 770.725 870.173H800.969C802.453 870.173 803.752 868.967 803.752 867.39C803.659 865.813 802.453 864.606 800.969 864.606Z" fill="white"/>
<path d="M805.051 907.282H770.725C769.24 907.282 767.941 908.488 767.941 910.065C767.941 911.55 769.147 912.849 770.725 912.849H805.051C806.535 912.849 807.741 911.643 807.741 910.065C807.834 908.488 806.628 907.282 805.051 907.282Z" fill="#745CA1"/>
<path d="M961.005 876.853H884.744C883.26 876.853 881.961 878.059 881.961 879.636C881.961 881.12 883.167 882.419 884.744 882.419H961.005C962.489 882.419 963.695 881.213 963.695 879.636C963.695 878.059 962.489 876.853 961.005 876.853Z" fill="#E8E8F7"/>
<path d="M932.987 889.099H884.651C883.167 889.099 881.868 890.305 881.868 891.882C881.868 893.366 883.074 894.665 884.651 894.665H932.987C934.471 894.665 935.77 893.459 935.77 891.882C935.77 890.397 934.564 889.099 932.987 889.099Z" fill="#E8E8F7"/>
<path d="M872.591 977.604H858.768C857.654 977.604 856.819 978.532 856.819 979.645V993.562C856.819 994.675 857.654 995.51 858.768 995.51H872.591C873.704 995.51 874.539 994.582 874.539 993.562V979.645C874.539 978.532 873.704 977.604 872.591 977.604Z" fill="#868AE0"/>
<path d="M1023.72 991.706H1015.18C1014.44 991.706 1013.98 992.263 1013.98 992.912V1001.45C1013.98 1002.1 1014.53 1002.65 1015.18 1002.65H1023.72C1024.37 1002.65 1024.93 1002.1 1024.93 1001.45V992.912C1024.93 992.263 1024.46 991.706 1023.72 991.706Z" fill="#868AE0"/>
<path d="M1023.72 872.678H1015.18C1014.44 872.678 1013.98 873.234 1013.98 873.884V882.419C1013.98 883.068 1014.53 883.625 1015.18 883.625H1023.72C1024.37 883.625 1024.93 883.068 1024.93 882.419V873.884C1024.93 873.234 1024.46 872.678 1023.72 872.678Z" fill="#FF7A82"/>
<path d="M974.921 977.604H884.651C883.167 977.604 881.868 978.811 881.868 980.388C881.868 981.872 883.074 983.171 884.651 983.171H974.921C976.405 983.171 977.611 981.965 977.611 980.388C977.704 978.903 976.498 977.604 974.921 977.604Z" fill="#E8E8F7"/>
<path d="M946.996 989.943H884.651C883.167 989.943 881.868 991.149 881.868 992.727C881.868 994.211 883.074 995.51 884.651 995.51H946.996C948.48 995.51 949.779 994.304 949.779 992.727C949.779 991.149 948.48 989.943 946.996 989.943Z" fill="#E8E8F7"/>
<path d="M961.005 1002.28H884.744C883.26 1002.28 881.961 1003.49 881.961 1005.07C881.961 1006.55 883.167 1007.85 884.744 1007.85H961.005C962.489 1007.85 963.695 1006.64 963.695 1005.07C963.695 1003.49 962.489 1002.28 961.005 1002.28Z" fill="#E8E8F7"/>
<path d="M974.921 1014.62H884.651C883.167 1014.62 881.868 1015.83 881.868 1017.41C881.868 1018.89 883.074 1020.19 884.651 1020.19H974.921C976.405 1020.19 977.611 1018.98 977.611 1017.41C977.704 1015.83 976.498 1014.62 974.921 1014.62Z" fill="#E8E8F7"/>
<path d="M1065.1 889.283H1016.76C1015.28 889.283 1013.98 890.489 1013.98 892.066C1013.98 893.551 1015.18 894.85 1016.76 894.85H1065.1C1066.58 894.85 1067.88 893.644 1067.88 892.066C1067.79 890.489 1066.58 889.283 1065.1 889.283Z" fill="#E8E8F7"/>
<path d="M1051.09 901.53H1016.76C1015.28 901.53 1013.98 902.736 1013.98 904.313C1013.98 905.798 1015.18 907.097 1016.76 907.097H1051.09C1052.57 907.097 1053.87 905.891 1053.87 904.313C1053.87 902.829 1052.57 901.53 1051.09 901.53Z" fill="#E8E8F7"/>
<path d="M1059.53 913.869H1016.76C1015.28 913.869 1013.98 915.075 1013.98 916.652C1013.98 918.137 1015.18 919.436 1016.76 919.436H1059.53C1061.01 919.436 1062.22 918.23 1062.22 916.652C1062.22 915.168 1061.01 913.869 1059.53 913.869Z" fill="#E8E8F7"/>
<path d="M1037.08 926.208H1016.67C1015.18 926.208 1013.89 927.414 1013.89 928.991C1013.89 930.476 1015.09 931.774 1016.67 931.774H1037.08C1038.56 931.774 1039.86 930.568 1039.86 928.991C1039.86 927.507 1038.66 926.208 1037.08 926.208Z" fill="#E8E8F7"/>
<path d="M1051.09 1008.87H1016.76C1015.28 1008.87 1013.98 1010.08 1013.98 1011.65C1013.98 1013.14 1015.18 1014.44 1016.76 1014.44H1051.09C1052.57 1014.44 1053.87 1013.23 1053.87 1011.65C1053.87 1010.17 1052.57 1008.87 1051.09 1008.87Z" fill="#E8E8F7"/>
<path d="M1065.1 1021.21H1016.76C1015.28 1021.21 1013.98 1022.41 1013.98 1023.99C1013.98 1025.48 1015.18 1026.77 1016.76 1026.77H1065.1C1066.58 1026.77 1067.88 1025.57 1067.88 1023.99C1067.79 1022.51 1066.58 1021.21 1065.1 1021.21Z" fill="#E8E8F7"/>
<path d="M932.987 1026.96H884.651C883.167 1026.96 881.868 1028.17 881.868 1029.74C881.868 1031.23 883.074 1032.53 884.651 1032.53H932.987C934.471 1032.53 935.77 1031.32 935.77 1029.74C935.77 1028.17 934.564 1026.96 932.987 1026.96Z" fill="#E8E8F7"/>
<path d="M805.051 920.178H770.725C769.24 920.178 767.941 921.384 767.941 922.961C767.941 924.445 769.147 925.744 770.725 925.744H805.051C806.535 925.744 807.741 924.538 807.741 922.961C807.834 921.477 806.628 920.178 805.051 920.178Z" fill="#745CA1"/>
<path d="M805.051 933.166H770.725C769.24 933.166 767.941 934.372 767.941 935.949C767.941 937.434 769.147 938.732 770.725 938.732H805.051C806.535 938.732 807.741 937.526 807.741 935.949C807.834 934.372 806.628 933.166 805.051 933.166Z" fill="#745CA1"/>
<path d="M821.936 966.843H770.725C769.24 966.843 767.941 968.049 767.941 969.626C767.941 971.11 769.147 972.409 770.725 972.409H821.936C823.42 972.409 824.626 971.203 824.626 969.626C824.626 968.142 823.42 966.843 821.936 966.843Z" fill="#C0AFDB"/>
<path d="M805.051 979.831H770.725C769.24 979.831 767.941 981.037 767.941 982.614C767.941 984.099 769.147 985.397 770.725 985.397H805.051C806.535 985.397 807.741 984.191 807.741 982.614C807.834 981.037 806.628 979.831 805.051 979.831Z" fill="#745CA1"/>
<path d="M821.936 1026.87H770.725C769.24 1026.87 767.941 1028.07 767.941 1029.65C767.941 1031.14 769.147 1032.43 770.725 1032.43H821.936C823.42 1032.43 824.626 1031.23 824.626 1029.65C824.626 1028.17 823.42 1026.87 821.936 1026.87Z" fill="#C0AFDB"/>
<path d="M805.051 1039.86H770.725C769.24 1039.86 767.941 1041.06 767.941 1042.64C767.941 1044.12 769.147 1045.42 770.725 1045.42H805.051C806.535 1045.42 807.741 1044.22 807.741 1042.64C807.834 1041.06 806.628 1039.86 805.051 1039.86Z" fill="#745CA1"/>
<path d="M805.051 992.727H770.725C769.24 992.727 767.941 993.933 767.941 995.51C767.941 996.994 769.147 998.293 770.725 998.293H805.051C806.535 998.293 807.741 997.087 807.741 995.51C807.834 993.933 806.628 992.727 805.051 992.727Z" fill="#745CA1"/>
<path d="M833.533 972.409C835.018 972.409 836.316 971.203 836.316 969.626C836.316 968.049 835.11 966.843 833.533 966.843C831.956 966.843 830.843 968.049 830.843 969.626C830.843 971.203 832.049 972.409 833.533 972.409Z" fill="#FF7A82"/>
<path d="M1004.61 853.567C1004.61 853.381 1004.42 853.195 1004.24 853.195C1004.05 853.195 1003.87 853.381 1003.87 853.567V1072.33C1003.87 1072.51 1004.05 1072.7 1004.24 1072.7C1004.42 1072.7 1004.61 1072.51 1004.61 1072.33V853.567Z" fill="#E8E8F7"/>
<path d="M987.538 1047.09C987.723 1047.09 987.909 1047.09 988.094 1047.18C988.28 1047.28 988.373 1047.37 988.558 1047.46C988.651 1047.56 988.837 1047.74 988.837 1047.93C988.93 1048.11 988.929 1048.3 988.929 1048.48V1063.88C988.929 1064.07 988.93 1064.25 988.837 1064.35C988.744 1064.53 988.651 1064.63 988.558 1064.81C988.466 1064.9 988.28 1065 988.094 1065.09C987.909 1065.18 987.723 1065.18 987.538 1065.18H859.139C858.768 1065.18 858.396 1065 858.211 1064.81C857.933 1064.53 857.84 1064.25 857.84 1063.88V1048.58C857.84 1048.39 857.84 1048.2 857.933 1048.02C858.026 1047.83 858.118 1047.74 858.211 1047.56C858.304 1047.46 858.489 1047.28 858.675 1047.28C858.86 1047.18 859.046 1047.18 859.232 1047.18H987.538V1047.09ZM987.538 1046.07H859.139C858.768 1046.07 858.489 1046.16 858.211 1046.26C857.933 1046.35 857.654 1046.54 857.469 1046.81C857.283 1047 857.098 1047.28 857.005 1047.56C856.912 1047.83 856.819 1048.11 856.819 1048.48V1063.88C856.819 1064.16 856.912 1064.53 857.005 1064.81C857.098 1065.09 857.283 1065.37 857.469 1065.55C857.747 1065.74 857.933 1065.92 858.211 1066.11C858.489 1066.2 858.768 1066.3 859.139 1066.3H987.538C988.187 1066.3 988.744 1066.02 989.208 1065.55C989.672 1065.09 989.95 1064.53 989.95 1063.88V1048.48C989.95 1047.83 989.672 1047.28 989.208 1046.81C988.837 1046.35 988.187 1046.07 987.538 1046.07Z" fill="#E8E8F7"/>
<path d="M1068.34 1038.65C1068.71 1038.65 1069.09 1038.84 1069.27 1039.11C1069.55 1039.39 1069.64 1039.76 1069.64 1040.04V1055.44C1069.64 1055.81 1069.46 1056.09 1069.27 1056.37C1068.99 1056.65 1068.71 1056.74 1068.34 1056.74H1016.39C1016.02 1056.74 1015.74 1056.55 1015.46 1056.37C1015.18 1056.09 1015.09 1055.81 1015 1055.44V1039.95C1015 1039.58 1015.18 1039.21 1015.37 1039.02C1015.65 1038.74 1015.93 1038.56 1016.3 1038.56H1068.25V1038.65H1068.34ZM1068.34 1037.44H1016.39C1015.74 1037.44 1015.18 1037.72 1014.72 1038.19C1014.26 1038.65 1013.98 1039.21 1013.98 1039.86V1055.26C1013.98 1055.91 1014.26 1056.46 1014.72 1056.93C1015.18 1057.39 1015.74 1057.67 1016.39 1057.67H1068.34C1068.99 1057.67 1069.55 1057.39 1070.01 1056.93C1070.48 1056.46 1070.76 1055.91 1070.76 1055.26V1039.86C1070.76 1039.21 1070.48 1038.65 1070.01 1038.19C1069.55 1037.81 1068.99 1037.54 1068.34 1037.44Z" fill="#E8E8F7"/>
<defs>
<linearGradient id="paint0_linear" x1="850" y1="273" x2="850" y2="1357.58" gradientUnits="userSpaceOnUse">
<stop stop-color="#573E82"/>
<stop offset="1" stop-color="#453069"/>
</linearGradient>
<linearGradient id="paint1_linear" x1="586.457" y1="303.504" x2="1112.97" y2="1320.92" gradientUnits="userSpaceOnUse">
<stop stop-color="#573E82"/>
<stop offset="1" stop-color="#453069"/>
</linearGradient>
<linearGradient id="paint2_linear" x1="281.373" y1="740.966" x2="1418.06" y2="883.455" gradientUnits="userSpaceOnUse">
<stop stop-color="#573E82"/>
<stop offset="1" stop-color="#453069"/>
</linearGradient>
</defs>
</svg>
