<svg width="1396" height="1344" viewBox="0 0 1396 1344" fill="none" xmlns="http://www.w3.org/2000/svg">
<path d="M1129.68 425.928C1135.96 438.468 1144.98 450.1 1155.47 459.414C1490.64 757.266 1249.82 968.726 879.112 1071.2C873.225 1072.83 867.429 1074.97 861.916 1077.6C612.634 1196.48 353.251 1290.07 218.648 909.69C214.083 896.792 206.984 884.573 198.511 873.83C38.8851 671.452 146.419 350.085 460.764 279.539C477.823 275.711 494.061 268.314 507.785 257.483C753.339 63.6725 960.116 86.9256 1129.68 425.928Z" fill="#E8EAF7" fill-opacity="0.5"/>
<path d="M1192.82 644.532C1193.06 658.551 1196.17 672.924 1201.58 685.858C1369.75 1087.39 1069.96 1171.53 702.087 1105.66C696.074 1104.58 689.924 1104 683.816 1103.99C415.459 1103.43 148.976 1076.37 190.518 686.899C191.969 673.294 190.847 659.222 187.872 645.868C133.488 401.685 362.37 165.675 667.088 235.379C684.131 239.278 701.949 239.631 719.009 235.809C1015.22 169.452 1186.47 276.743 1192.82 644.532Z" fill="#FF5856" fill-opacity="0.05"/>
<path d="M880.253 222.242C893.21 227.602 907.632 230.474 921.652 230.656C1356.94 236.284 1314.74 544.788 1107.84 856.006C1104.45 861.092 1101.48 866.505 1099.03 872.103C991.66 1118.04 860.727 1351.71 520.005 1158.52C508.104 1151.77 494.748 1147.2 481.314 1144.61C235.67 1097.26 110.317 793.332 295.594 541.57C305.957 527.489 313.376 511.284 316.664 494.113C373.744 195.978 540.354 81.6108 880.253 222.242Z" fill="#676BC4" fill-opacity="0.06"/>
<path d="M830.639 898.438H773.047C771.168 898.438 769.571 896.935 769.571 894.962V892.238C769.571 890.359 771.074 888.762 773.047 888.762H830.639C832.518 888.762 834.115 890.265 834.115 892.238V894.962C834.021 896.935 832.424 898.438 830.639 898.438Z" fill="#B7B7C4"/>
<path d="M810.628 736.281H792.871V888.95H810.628V736.281Z" fill="#735639"/>
<path d="M817.298 476.51L832.8 475.007L835.9 505.447C835.9 505.447 831.578 506.95 826.974 507.138C822.371 507.419 818.049 507.138 818.049 507.138L817.298 476.51Z" fill="#0C0454"/>
<path d="M758.673 431.414C753.6 441.937 742.326 487.69 742.326 487.69C741.95 488.63 742.326 489.757 743.265 490.415C746.178 492.482 753.13 498.87 766.659 503.192C773.235 505.259 789.3 507.983 796.628 507.42C797.944 507.326 798.977 506.104 798.977 506.104L806.493 401.256C774.832 399.659 761.679 425.213 758.673 431.414Z" fill="#110580"/>
<path d="M770.981 490.414C765.814 490.414 761.68 483.18 761.68 473.972C761.68 464.765 765.72 457.531 770.981 457.531C776.148 457.531 780.282 464.765 780.282 473.972C780.282 483.273 776.148 490.414 770.981 490.414ZM770.981 459.786C767.129 459.786 764.028 466.269 764.028 474.066C764.028 481.77 767.223 488.347 770.981 488.347C774.739 488.347 777.933 481.864 777.933 474.066C778.027 466.269 774.833 459.786 770.981 459.786Z" fill="white"/>
<path d="M806.682 493.609C832.988 493.609 854.408 473.504 854.408 448.607C854.408 423.805 833.082 403.605 806.682 403.605C780.282 403.605 758.955 423.711 758.955 448.607C758.955 473.504 780.282 493.609 806.682 493.609Z" fill="#FCB58A"/>
<path d="M827.726 488.911C826.975 471.155 826.035 448.419 826.035 447.761C826.035 447.761 815.982 445.037 810.158 439.682C808.372 437.991 807.057 436.206 806.212 434.608C806.87 437.145 808.091 439.87 810.44 442.688C815.607 448.607 823.405 452.835 823.405 452.835C823.311 453.492 824.062 473.504 823.029 490.79C824.814 490.227 826.223 489.663 827.726 488.911Z" fill="#E3996D"/>
<path d="M934.171 781.472C908.711 781.472 888.042 782.411 887.948 783.539C888.042 784.666 908.711 785.605 934.171 785.605C959.538 785.605 980.301 784.666 980.395 783.539C980.301 782.317 959.726 781.472 934.171 781.472ZM935.299 784.948C916.227 784.948 900.725 784.29 900.725 783.445C900.725 782.599 916.227 781.941 935.299 781.941C954.371 781.941 969.872 782.599 969.872 783.445C969.872 784.29 954.371 784.948 935.299 784.948Z" fill="#E8D4C1"/>
<path d="M934.171 781.472C908.617 781.472 887.948 782.411 887.948 783.539C887.948 784.666 908.617 785.605 934.171 785.605C959.726 785.605 980.395 784.666 980.395 783.539C980.395 782.411 959.726 781.472 934.171 781.472ZM935.299 784.948C916.227 784.948 900.725 784.29 900.725 783.445C900.725 782.599 916.227 781.941 935.299 781.941C954.371 781.941 969.872 782.599 969.872 783.445C969.872 784.29 954.371 784.948 935.299 784.948Z" fill="#E8D4C1"/>
<path d="M935.298 784.948C954.37 784.948 969.872 784.29 969.872 783.445C969.872 782.599 954.37 781.941 935.298 781.941C916.227 781.941 900.725 782.599 900.725 783.445C900.725 784.29 916.133 784.948 935.298 784.948Z" fill="#BA9C7E"/>
<path d="M960.665 607.477C950.801 630.964 943.754 655.579 939.714 680.757C935.768 705.936 934.641 731.49 936.614 756.951C937.741 771.231 939.808 785.324 942.815 799.322C943.379 801.859 947.231 800.825 946.667 798.289C941.312 773.58 939.057 748.401 939.714 723.129C940.372 698.044 944.036 672.96 950.612 648.721C954.277 635.004 958.974 621.569 964.517 608.51C964.987 607.571 964.048 606.255 963.108 606.067C961.981 605.786 961.041 606.443 960.665 607.477Z" fill="#4C7378"/>
<path d="M961.98 713.639C952.115 735.059 946.197 758.171 944.599 781.659C944.13 788.235 944.036 794.812 944.318 801.388C944.412 803.925 948.451 803.925 948.263 801.388C947.418 778.464 950.8 755.447 958.128 733.744C960.195 727.637 962.638 721.531 965.362 715.612C966.49 713.357 963.014 711.29 961.98 713.639Z" fill="#4C7378"/>
<path d="M911.624 612.737C917.918 634.534 922.428 656.8 925.716 679.254C929.004 701.614 931.165 724.256 932.857 746.804C933.796 759.581 934.735 772.358 935.487 785.229C935.675 787.766 939.621 787.766 939.433 785.229C937.93 762.493 936.427 739.663 934.172 716.928C931.917 694.286 928.911 671.644 924.495 649.284C921.958 636.601 918.952 624.105 915.382 611.704C914.724 609.167 910.966 610.201 911.624 612.737Z" fill="#4C7378"/>
<path d="M888.231 678.22C893.68 683.763 897.062 690.904 899.974 698.044C903.263 705.936 906.081 713.921 908.524 722.095C913.409 738.254 916.979 754.789 918.764 771.606C919.798 781.001 920.361 790.49 920.455 799.979C920.455 802.516 924.401 802.516 924.401 799.979C924.307 782.693 922.522 765.406 919.14 748.401C915.852 731.49 910.873 714.767 904.39 698.701C901.008 690.34 897.343 681.978 890.861 675.402C889.264 673.523 886.352 676.341 888.231 678.22Z" fill="#4C7378"/>
<path d="M915.757 757.514C912.844 753.849 909.086 751.407 906.08 750.186C902.98 748.964 900.537 748.964 899.785 749.716C899.034 750.561 899.222 752.91 900.255 755.822C901.288 758.735 903.074 762.305 905.704 765.499C908.335 768.788 911.435 771.136 914.254 772.733C916.978 774.331 919.327 774.988 919.984 774.612C920.83 774.049 921.3 771.7 920.736 768.412C920.361 765.217 918.763 761.084 915.757 757.514Z" fill="#4C7378"/>
<path d="M928.44 730.362C930.883 718.336 928.629 707.814 926.374 707.438C924.119 707.062 918.294 715.988 915.851 727.825C913.503 739.663 915.946 750.279 917.543 750.655C919.516 751.125 925.998 742.481 928.44 730.362Z" fill="#689399"/>
<path d="M917.636 750.561C920.173 748.025 914.16 738.066 904.296 728.389C894.431 718.712 884.378 712.887 881.935 715.424C879.399 717.961 885.412 727.919 895.276 737.596C905.047 747.273 915.1 753.098 917.636 750.561Z" fill="#4C7378"/>
<path d="M935.956 764.936C937.083 759.956 937.741 755.071 938.023 750.655C938.305 746.24 938.117 742.2 937.741 738.912C936.99 732.147 935.392 728.107 934.265 728.107C933.137 728.107 931.54 732.053 929.661 738.254C928.722 741.354 927.688 745.018 926.749 748.964C925.715 753.004 924.588 757.42 923.555 762.023C922.427 766.627 921.488 771.136 920.736 775.176C919.891 779.216 919.233 783.068 918.669 786.262C917.636 792.651 917.354 796.973 918.105 797.348C919.045 797.818 922.239 794.812 925.997 789.175C927.876 786.356 929.755 782.786 931.54 778.746C933.138 774.519 934.734 769.915 935.956 764.936Z" fill="#57848A"/>
<path d="M962.074 769.915C965.926 763.151 968.745 756.669 970.342 751.595C972.033 746.522 972.409 743.046 971.469 742.388C970.53 741.73 967.43 743.515 963.484 747.18C959.538 750.844 954.84 756.481 950.894 763.433C946.949 770.385 944.6 777.431 943.566 782.693C943.002 785.323 942.815 787.578 942.815 789.175C942.815 789.645 942.627 790.303 943.002 791.148C943.096 791.336 943.19 791.524 943.284 791.618C943.378 791.806 943.754 791.994 943.942 792.088C944.412 792.182 944.693 792.088 944.881 791.994C945.257 791.712 945.539 791.336 945.351 791.054C945.257 790.772 945.069 790.866 944.975 790.866C944.881 790.96 944.882 790.96 944.788 790.96C944.694 791.054 944.882 790.96 944.788 790.96C944.788 790.96 944.694 790.96 944.694 790.866C944.6 790.772 944.6 790.678 944.6 790.678C944.6 790.678 944.6 790.772 944.6 790.96C944.6 790.96 944.6 790.96 944.6 791.054L944.881 790.866C944.881 790.866 944.881 790.866 944.975 790.866C945.069 790.866 945.351 790.772 945.821 790.96H945.915H946.009H946.103C946.197 790.96 946.197 790.96 946.291 790.866C947.606 789.927 949.109 788.33 950.8 786.357C954.089 782.411 958.316 776.586 962.074 769.915Z" fill="#57848A"/>
<path d="M951.927 739.475C950.988 730.926 948.827 723.41 946.667 718.148C944.506 712.887 942.439 709.693 941.311 709.881C940.184 710.069 939.151 713.733 938.587 719.37C938.117 725.007 938.117 732.711 939.057 740.978C939.526 745.112 940.184 749.058 941.03 752.534C941.875 756.104 942.721 759.204 943.284 761.741C943.942 764.278 944.411 766.439 944.881 768.036C945.257 769.539 945.633 770.572 946.009 770.666C946.479 770.76 947.418 770.197 948.358 768.693C949.297 767.19 950.424 764.841 951.082 761.835C951.834 758.829 952.21 755.353 952.304 751.595C952.492 747.931 952.397 743.797 951.927 739.475Z" fill="#4C7378"/>
<path d="M898.752 698.325C893.773 693.534 888.418 690.245 884.096 688.366C879.774 686.487 876.674 686.018 875.922 686.957C875.264 687.803 876.392 690.809 878.835 694.567C881.277 698.419 885.129 703.116 889.827 707.626C894.618 712.136 899.597 715.612 903.543 717.867C907.489 720.121 910.496 721.155 911.153 720.591C911.999 719.933 911.341 716.739 909.274 712.511C907.395 708.284 903.825 703.116 898.752 698.325Z" fill="#689399"/>
<path d="M891.33 665.725C885.411 655.203 876.768 649.19 874.795 650.411C872.916 651.539 874.325 661.873 880.056 672.114C885.787 682.354 894.337 688.649 895.84 687.897C897.719 686.864 897.249 676.247 891.33 665.725Z" fill="#4C7378"/>
<path d="M913.314 685.83C912.281 678.69 909.744 672.489 907.208 668.449C904.671 664.315 902.134 662.248 901.101 662.718C900.068 663.094 899.504 666.194 899.41 670.798C899.316 675.307 899.692 681.32 900.537 687.709C901.477 694.191 902.886 699.922 904.295 704.244C905.704 708.566 907.114 711.478 907.959 711.478C908.993 711.572 910.778 708.847 912.187 704.244C913.502 699.546 914.348 692.876 913.314 685.83Z" fill="#57848A"/>
<path d="M978.986 725.195C984.905 721.155 989.884 716.833 993.267 713.263C996.649 709.693 998.528 706.875 997.87 705.841C997.307 704.902 993.924 704.902 989.133 706.311C984.247 707.626 977.953 710.351 971.752 714.579C965.551 718.806 960.854 723.88 957.848 727.919C954.935 732.053 953.714 735.154 954.184 735.811C954.841 736.657 958.129 735.905 962.733 734.12C967.336 732.335 973.162 729.235 978.986 725.195Z" fill="#689399"/>
<path d="M982.556 693.815C986.69 685.172 989.039 676.716 989.884 670.422C990.824 664.127 990.448 659.993 989.415 659.618C988.381 659.242 985.656 662.342 982.274 667.509C978.892 672.771 974.852 680.005 970.906 688.178C966.96 696.446 964.048 704.244 962.169 710.163C960.29 716.081 959.632 720.121 960.29 720.591C961.136 721.155 964.612 718.806 968.933 714.108C973.349 709.505 978.422 702.459 982.556 693.815Z" fill="#4C7378"/>
<path d="M971.281 695.788C974.006 680.568 973.442 667.697 969.966 667.134C966.49 666.476 961.416 678.314 958.598 693.533C955.873 708.753 956.437 721.624 959.913 722.188C963.389 722.752 968.463 711.008 971.281 695.788Z" fill="#689399"/>
<path d="M975.228 593.384C978.704 585.962 981.146 578.915 982.556 573.466C983.965 568.111 984.247 564.353 983.213 563.789C982.274 563.226 979.174 565.386 975.322 569.614C971.47 573.842 967.054 580.137 963.484 587.841C959.82 595.544 957.941 602.966 957.189 608.603C956.438 614.24 956.72 617.998 957.471 618.28C958.411 618.656 961.135 616.025 964.423 611.61C967.806 607.194 971.752 600.806 975.228 593.384Z" fill="#689399"/>
<path d="M965.363 593.384C965.833 585.68 965.645 578.633 964.893 573.278C964.236 568.017 963.108 564.635 961.981 564.447C960.853 564.259 958.786 567.172 956.813 572.245C954.841 577.318 952.961 584.364 952.492 592.444C951.928 600.524 952.961 607.852 954.371 613.113C955.686 618.374 957.471 621.569 958.317 621.569C959.35 621.569 960.853 618.28 962.262 613.207C963.578 608.04 964.799 601.088 965.363 593.384Z" fill="#4C7378"/>
<path d="M974.57 630.212C976.919 626.36 978.892 622.508 980.301 618.938C981.711 615.274 982.744 611.986 983.402 608.979C984.623 603.154 984.341 599.302 983.308 598.833C982.275 598.363 979.55 601.088 975.98 605.597C974.289 607.852 972.222 610.483 970.155 613.489C968.088 616.495 965.833 619.784 963.672 623.354C961.417 626.83 959.444 630.306 957.659 633.5C955.874 636.694 954.371 639.607 953.15 642.238C950.707 647.405 949.392 650.975 950.049 651.539C950.801 652.196 954.371 650.787 959.163 647.217C961.511 645.432 964.236 643.083 966.867 640.265C969.591 637.446 972.222 634.064 974.57 630.212Z" fill="#689399"/>
<path d="M945.727 625.233C944.976 621.381 944.224 617.717 943.472 614.522C943.19 612.831 942.721 611.328 942.439 609.825C942.251 609.073 942.063 608.416 941.969 607.664C941.875 607.006 941.688 606.349 941.5 605.691C940.372 600.618 939.433 597.142 938.211 596.954C937.178 596.766 934.923 599.772 933.326 605.503C933.138 606.161 932.95 607.006 932.762 607.758C932.574 608.603 932.48 609.355 932.386 610.107C932.105 611.798 932.011 613.583 931.917 615.462C931.823 619.22 932.198 623.354 932.856 627.487C934.453 635.849 937.366 642.707 939.808 647.593C942.345 652.478 944.506 655.39 945.258 655.297C946.291 655.109 947.324 651.539 947.512 645.995C947.888 640.452 947.137 633.03 945.727 625.233Z" fill="#4C7378"/>
<path d="M964.142 667.041C968.651 660.746 971.658 654.357 973.255 649.378C974.852 644.399 974.946 640.923 973.913 640.359C972.973 639.795 970.061 641.674 966.303 645.056C962.545 648.532 958.035 653.512 953.619 659.525C949.298 665.443 946.009 671.456 943.942 676.154C941.875 680.851 941.03 684.139 941.688 684.703C942.533 685.361 945.728 684.139 949.955 681.227C954.371 678.221 959.632 673.335 964.142 667.041Z" fill="#57848A"/>
<path d="M914.254 600.711C910.59 593.101 905.986 587.182 902.135 583.236C898.283 579.29 895.182 577.411 894.243 577.975C893.303 578.539 893.585 582.109 895.182 587.37C896.686 592.631 899.316 599.302 902.698 606.254C904.389 609.73 905.987 612.924 907.584 615.931C908.335 617.434 909.087 618.843 909.839 620.065C910.59 621.38 911.248 622.601 911.906 623.729C914.442 628.238 916.415 631.245 917.261 631.151C918.2 631.057 919.515 627.487 919.515 621.85C919.515 620.44 919.421 618.843 919.234 617.246C919.046 615.555 918.764 613.864 918.294 611.985C917.355 608.415 916.039 604.563 914.254 600.711Z" fill="#4C7378"/>
<path d="M913.972 628.615C904.953 617.247 894.055 611.14 892.364 612.737C890.673 614.241 895.088 625.609 903.92 636.695C912.657 647.781 923.273 654.263 924.589 653.23C926.28 652.102 922.991 639.983 913.972 628.615Z" fill="#4C7378"/>
<path d="M918.858 654.075C915.382 650.411 911.53 647.592 908.335 645.807C905.141 644.022 902.604 643.364 901.665 644.022C900.819 644.68 900.82 647.404 902.041 650.974C903.262 654.544 905.705 659.054 909.557 662.906C913.409 666.852 917.824 669.388 921.301 670.704C924.871 672.019 927.595 672.113 928.159 671.549C928.816 670.704 928.253 668.167 926.655 664.879C924.964 661.685 922.428 657.739 918.858 654.075Z" fill="#689399"/>
<path d="M925.903 688.273C921.77 680.663 917.354 673.992 913.878 669.201C910.401 664.503 907.583 661.685 906.738 662.061C905.892 662.343 905.986 666.007 907.395 671.644C908.804 677.187 911.529 684.797 915.851 692.594C920.172 700.392 925.246 706.875 929.379 711.29C933.513 715.706 936.801 718.149 937.459 717.773C938.305 717.303 937.459 713.827 935.392 708.378C933.326 703.023 930.131 695.883 925.903 688.273Z" fill="#689399"/>
<path d="M945.258 698.795C945.352 693.064 943.943 687.991 942.346 684.515C940.655 681.039 938.681 679.066 937.554 679.254C936.427 679.441 935.205 681.79 934.266 685.36C933.326 688.93 932.481 693.534 932.387 698.607C932.293 703.68 933.045 708.378 933.984 711.948C934.924 715.518 936.051 717.961 936.896 718.055C937.93 718.243 939.903 716.364 941.782 712.981C943.567 709.505 945.164 704.526 945.258 698.795Z" fill="#4C7378"/>
<path d="M950.331 719.182C952.962 713.451 953.807 707.626 953.714 703.305C953.526 698.983 952.398 696.352 951.365 696.071C950.237 695.789 948.264 697.856 945.915 701.144C943.567 704.432 941.03 708.848 938.682 713.921C936.333 718.994 934.83 723.88 933.984 727.826C933.045 731.772 932.857 734.684 933.514 735.154C934.36 735.811 937.178 734.872 940.467 732.147C943.755 729.423 947.607 725.007 950.331 719.182Z" fill="#689399"/>
<path d="M933.515 619.596C933.796 610.295 932.669 602.027 931.166 596.014C929.663 590.001 927.877 586.431 926.656 586.525C925.529 586.619 924.119 590.377 922.992 596.296C921.865 602.215 920.831 610.389 920.643 619.314C920.361 628.239 921.113 636.413 921.959 642.425C922.898 648.438 924.025 652.29 924.871 652.384C925.904 652.478 927.972 649.002 929.757 643.083C931.636 637.07 933.327 628.803 933.515 619.596Z" fill="#689399"/>
<path d="M980.395 783.537C980.301 784.665 959.632 785.604 934.171 785.604C908.805 785.604 888.042 784.665 887.948 783.537C887.948 783.631 887.948 783.819 887.948 784.007L895.746 866.401L897.061 880.211C897.155 882.654 913.69 884.627 934.171 884.627C954.652 884.627 971.281 882.654 971.281 880.211L971.564 877.299C971.564 877.205 971.564 877.205 971.564 877.111L972.221 870.722L980.489 783.913C980.395 783.819 980.395 783.631 980.395 783.537Z" fill="#DEC7B2"/>
<path d="M974.664 844.794L975.04 841.13C974.946 841.224 974.758 841.224 974.57 841.224C960.665 846.391 946.855 851.558 933.044 856.726C925.059 859.638 917.073 862.644 909.181 865.651C908.053 866.121 907.49 867.53 908.429 868.375C915.758 875.797 926.843 876.079 936.426 878.616C939.433 879.461 942.439 880.495 944.976 882.186H950.237C944.13 876.267 934.736 874.858 926.468 873.073C921.677 872.039 916.791 870.724 912.845 867.812C926.656 862.644 940.373 857.571 954.183 852.404C961.042 849.867 967.806 847.331 974.664 844.794Z" fill="#EBDBCD"/>
<path d="M938.587 811.911C951.928 808.153 965.363 804.489 978.798 800.825L979.455 794.154C950.895 794.812 922.334 796.033 893.867 798.006C892.364 798.1 890.954 798.194 889.451 798.288L889.733 801.576C914.442 799.885 939.151 798.57 963.86 797.818C968.557 797.724 973.349 797.536 978.14 797.443C965.645 800.919 953.243 804.301 940.748 807.777C925.058 812.099 909.463 816.796 894.806 823.655C893.867 824.124 892.928 824.5 892.082 824.97L892.458 828.54C893.209 828.164 893.961 827.788 894.712 827.413C908.617 820.742 923.555 816.139 938.587 811.911Z" fill="#EBDBCD"/>
<path d="M904.296 840.471C919.985 840.189 935.487 836.901 950.801 833.518C959.256 831.639 967.712 829.666 976.167 828.257L976.449 824.875C955.686 828.539 935.111 834.74 914.066 836.619C907.114 837.276 899.974 837.37 892.928 836.713L893.209 840.095C897.061 840.377 900.632 840.471 904.296 840.471Z" fill="#EBDBCD"/>
<path d="M969.872 783.444C969.872 784.29 954.371 784.948 935.299 784.948C916.227 784.948 900.725 784.29 900.725 783.444H888.042C888.042 783.444 888.042 783.444 888.042 783.538C888.136 784.666 908.805 785.605 934.265 785.605C959.632 785.605 980.395 784.666 980.489 783.538C980.489 783.538 980.489 783.538 980.489 783.444H969.872Z" fill="#E8D4C1"/>
<path d="M748.056 555.428C743.077 573.748 738.192 592.538 729.736 609.543C727.481 614.053 723.348 625.609 716.865 625.233C710.571 624.763 705.216 620.723 702.397 615.274C699.673 609.919 692.062 608.322 687.083 611.234C681.54 614.523 680.319 621.193 683.043 626.548C688.117 636.695 697.887 643.647 708.691 646.465C723.16 650.223 734.528 644.305 742.607 632.373C756.7 611.422 763.182 585.586 769.759 561.441C773.517 547.348 751.814 541.43 748.056 555.428Z" fill="#F0A173"/>
<path d="M752.379 805.24C753.882 813.977 755.668 822.621 757.829 831.17C761.681 846.296 786.389 839.907 782.537 824.687C780.282 816.138 778.591 807.401 777.088 798.757C775.961 792.275 767.411 788.705 761.304 790.302C754.07 792.181 751.346 798.757 752.379 805.24Z" fill="#E3996D"/>
<path d="M840.034 627.018C840.034 627.018 847.362 645.338 847.362 646.935C847.362 648.626 813.258 653.418 799.354 652.572C788.643 651.914 764.217 648.062 765.626 645.714C767.035 643.365 774.363 625.139 774.363 625.139C774.363 625.139 792.12 629.648 806.494 629.179C820.868 628.897 840.034 627.018 840.034 627.018Z" fill="#E3996D"/>
<path d="M765.531 645.808C765.531 645.808 775.396 649.096 781.127 649.848C805.46 653.324 821.244 651.351 821.244 651.351C821.244 651.351 748.902 690.904 746.554 696.071C744.205 701.238 767.035 719.088 773.705 739.194C779.624 757.044 783.664 801.482 784.415 811.065C784.509 812.193 783.851 813.32 782.818 813.79C780.469 814.917 775.584 816.796 768.256 818.112C757.451 820.085 750.5 822.057 750.312 819.615C750.124 817.172 710.007 742.67 708.504 740.227C707.001 737.784 683.983 701.896 683.044 692.689C680.131 665.255 765.531 645.808 765.531 645.808Z" fill="#FF8A91"/>
<path d="M790.71 513.526C790.71 513.526 771.169 517.472 762.525 524.706C754.822 531.189 740.635 558.716 737.722 564.635C737.346 565.293 737.535 566.138 738.004 566.702C739.883 568.581 744.581 572.997 748.903 575.157C754.446 578.07 765.437 580.231 765.437 580.231L767.974 563.508C767.974 563.508 761.867 574.594 765.907 586.431C768.256 593.384 770.041 602.591 770.417 607.194C770.605 609.731 770.041 624.387 770.041 624.387C770.041 624.387 784.885 628.239 800.951 629.366C816.922 630.494 844.074 625.327 844.074 625.327C844.074 625.327 842.758 591.411 843.604 585.304C845.295 572.997 841.725 564.071 841.725 564.071L846.422 582.767C846.422 582.767 862.488 584.834 865.588 583.237C868.5 581.734 873.668 577.318 875.828 575.439C876.486 574.876 876.768 573.936 876.58 573.091C875.077 566.796 868.031 541.054 856.475 528.183C850.556 521.606 828.666 514.842 823.593 514.842C818.332 514.654 790.71 513.526 790.71 513.526Z" fill="white"/>
<path d="M839.752 404.638C849.993 404.638 858.26 396.84 858.26 387.163C858.26 377.58 849.993 369.688 839.752 369.688C829.511 369.688 821.244 377.486 821.244 387.163C821.244 396.84 829.511 404.638 839.752 404.638Z" fill="#110580"/>
<path d="M757.828 832.768C757.828 832.768 767.128 834.459 771.168 833.144C777.463 831.077 783.664 826.191 783.664 826.191C783.664 826.191 791.555 834.647 793.622 836.62C795.783 838.687 798.507 840.002 800.668 843.76C802.829 847.612 803.017 858.228 788.361 868.093C783.1 871.757 776.43 894.869 763.465 899.472C754.727 902.573 747.775 903.512 741.95 900.788C735.937 898.063 734.434 891.487 746.46 882.467C758.579 873.542 755.76 863.114 757.076 856.537C758.391 850.149 757.828 832.768 757.828 832.768Z" fill="#AB534D"/>
<path d="M659.369 825.251C658.148 834.928 656.832 844.605 655.611 854.376C654.765 860.858 662.094 866.495 668.482 866.495C676.092 866.495 680.414 860.952 681.353 854.376C682.574 844.699 683.89 835.022 685.111 825.251C685.957 818.769 678.629 813.132 672.24 813.132C664.536 813.132 660.214 818.769 659.369 825.251Z" fill="#FCB58A"/>
<path d="M716.396 605.503C723.724 607.006 729.455 611.797 734.716 616.871C738.568 620.535 743.829 614.522 739.977 610.764C733.589 604.657 726.637 599.208 717.899 597.517C712.826 596.483 711.229 604.469 716.396 605.503Z" fill="#FCB58A"/>
<path d="M820.586 488.536L790.71 488.348C790.71 488.348 792.965 516.814 792.965 517.002C792.965 522.076 799.635 526.116 807.903 526.116C816.17 526.116 822.841 522.076 822.841 517.002C822.841 516.908 820.586 488.536 820.586 488.536Z" fill="#FCB58A"/>
<path d="M806.682 493.515C801.139 493.515 795.784 492.576 790.898 490.979L791.274 496.709C794.656 498.307 800.011 499.434 805.367 499.81C810.064 500.092 816.828 500.28 821.338 498.964L820.868 491.542C816.265 492.857 811.568 493.515 806.682 493.515Z" fill="#E3996D"/>
<path d="M847.831 646.841C847.831 646.841 860.89 661.215 863.239 671.268C865.588 681.32 867.091 696.634 863.709 705.559C860.327 714.485 849.71 727.356 830.357 728.483C798.414 730.362 731.897 718.806 728.985 718.806C726.072 718.806 727.2 738.254 717.241 765.499C708.316 789.644 692.344 829.855 688.962 838.31C688.586 839.25 687.647 839.908 686.613 840.002C683.137 840.189 674.87 840.377 666.414 839.062C660.495 838.123 656.174 835.68 653.825 834.177C652.698 833.425 652.134 832.11 652.322 830.888C653.355 821.587 657.865 782.786 660.59 766.909C663.502 750.186 665.663 685.548 676.373 672.489C685.674 661.027 689.056 659.806 699.579 656.518C709.068 653.605 809.97 652.666 809.97 652.666L847.831 646.841Z" fill="#FFADB2"/>
<path d="M653.262 858.98C650.162 864.711 644.149 872.602 639.17 875.891C627.426 883.782 612.488 894.399 610.327 896.56C608.073 898.814 603.093 908.303 610.797 913.377C616.34 917.041 632.311 918.45 652.417 908.491C667.543 900.975 675.153 899.378 680.696 897.311C689.903 893.929 687.836 883.876 685.957 878.991C684.454 875.139 684.078 874.388 683.044 864.429C682.763 862.268 681.917 853.531 681.917 853.531C681.917 853.531 674.119 856.161 665.57 855.128C659.275 854.282 655.799 850.148 655.799 850.148C655.799 850.148 654.296 857.007 653.262 858.98Z" fill="#C7645D"/>
<path d="M858.448 740.134H745.239C743.36 740.134 741.763 738.63 741.763 736.657V725.383C741.763 723.504 743.266 721.907 745.239 721.907H858.448C860.327 721.907 861.924 723.41 861.924 725.383V736.657C861.83 738.63 860.327 740.134 858.448 740.134Z" fill="#AB8868"/>
<path d="M629.68 562.192L690.184 568.205C691.594 568.299 692.909 569.145 693.942 570.366L758.392 650.317C759.143 651.257 758.486 652.76 757.546 652.666L694.224 645.714C693.097 645.62 691.969 644.962 691.217 643.929L629.117 563.977C628.459 563.226 628.929 562.004 629.68 562.192Z" fill="#D7D7E6"/>
<path d="M850.65 578.069C850.931 579.197 851.119 580.418 851.401 581.546C851.495 582.015 851.965 584.646 851.777 583.613C851.683 582.673 852.059 585.586 852.059 586.243C852.153 587.465 852.247 588.686 852.34 589.907C852.434 592.162 852.341 594.417 852.247 596.766C852.153 597.423 852.153 598.175 852.059 598.832C852.059 598.644 852.341 597.141 852.153 598.457C851.871 599.772 851.683 601.181 851.307 602.59C851.026 603.624 850.65 604.657 850.368 605.597C849.71 607.852 850.556 605.691 849.71 607.288C849.24 608.227 848.77 609.167 848.207 610.012C847.925 610.482 845.858 613.489 846.892 612.079C843.415 616.401 840.879 618.28 835.618 620.629C814.855 630.118 787.515 622.602 766.001 617.528C756.512 615.274 746.929 612.831 737.628 609.825C723.818 605.503 717.898 627.111 731.709 631.527C754.915 638.855 779.342 644.586 803.581 646.841C831.39 649.377 862.206 640.264 871.976 611.516C876.298 598.832 875.265 584.834 872.446 572.057C869.252 557.964 847.549 563.977 850.65 578.069Z" fill="#FCB58A"/>
<path d="M843.698 571.211C845.765 569.895 868.219 553.83 868.219 553.83L876.205 574.781C876.205 574.781 873.95 578.727 864.931 583.33C855.818 587.84 847.268 586.806 847.268 586.806L843.698 571.211Z" fill="white"/>
<path d="M829.982 652.29C830.639 657.927 831.109 663.658 831.767 669.295C832.33 674.368 833.082 679.536 833.27 684.703C833.364 689.025 832.8 693.628 829.606 696.822C826.787 699.641 822.748 700.674 818.896 700.956C814.292 701.332 809.688 700.956 805.085 700.768C799.542 700.486 793.905 700.299 788.362 700.017C777.088 699.547 765.814 699.077 754.54 698.608C749.091 698.326 743.642 698.138 738.192 697.95C733.777 697.762 729.267 697.668 724.852 698.138C716.302 698.983 707.847 701.802 702.398 708.848C696.761 716.176 695.07 725.571 693.191 734.308C690.842 745.395 688.399 756.481 686.05 767.567C683.702 778.653 681.259 789.739 678.91 800.825C676.844 810.126 675.058 819.521 672.616 828.634C672.24 830.043 671.864 831.547 671.488 832.956C670.83 835.023 674.025 835.868 674.683 833.801C677.031 825.91 678.628 817.83 680.413 809.844C682.762 798.758 685.205 787.672 687.554 776.586C689.902 765.406 692.439 754.226 694.788 743.046C695.915 737.878 696.949 732.711 698.17 727.638C699.204 723.222 700.425 718.901 702.586 714.767C704.652 710.915 707.471 707.627 711.229 705.466C714.893 703.211 719.121 702.178 723.349 701.614C732.931 700.299 742.89 701.426 752.567 701.896C763.841 702.366 775.115 702.835 786.389 703.305C792.12 703.587 797.757 703.775 803.488 704.057C808.185 704.244 813.071 704.714 817.768 704.432C821.714 704.244 825.942 703.587 829.418 701.426C833.082 699.265 835.431 695.695 836.276 691.561C837.216 686.958 836.746 682.26 836.182 677.657C835.525 672.02 835.055 666.289 834.397 660.652C834.116 657.927 833.833 655.203 833.551 652.384C833.082 650.223 829.7 650.129 829.982 652.29Z" fill="white"/>
<path d="M487.909 912.813C484.809 911.685 483.212 908.397 484.245 905.297L558.278 662.624C559.311 659.524 562.787 657.739 565.888 658.866L573.592 661.591C576.692 662.718 578.289 666.194 577.162 669.295L495.519 909.242C494.392 912.343 491.01 913.94 487.909 912.813Z" fill="#8A6645"/>
<path d="M871.695 912.813C874.795 911.685 876.392 908.397 875.359 905.297L801.42 662.624C800.387 659.524 796.911 657.739 793.81 658.866L786.106 661.591C783.006 662.718 781.409 666.194 782.536 669.295L864.273 909.149C865.212 912.343 868.594 913.94 871.695 912.813Z" fill="#8A6645"/>
<path d="M883.815 671.08H475.791C472.503 671.08 469.778 668.355 469.778 665.067V651.914C469.778 648.626 472.503 645.901 475.791 645.901H883.815C887.103 645.901 889.828 648.626 889.828 651.914V665.067C889.734 668.355 887.103 671.08 883.815 671.08Z" fill="#C49C77"/>
<path d="M524.363 881.246C486.877 876.548 470.059 900.694 469.965 900.787C469.965 900.694 471.751 902.103 471.751 896.936L470.905 889.326C470.905 889.326 467.711 890.265 466.49 890.829C462.638 892.426 459.255 896.936 458.222 896.842C457.282 896.748 453.712 893.553 448.075 892.05C442.532 890.547 435.956 891.956 435.298 891.58C434.734 891.205 434.922 889.232 434.077 886.695C433.043 883.783 430.319 880.4 430.319 880.4C430.225 880.494 421.769 896.56 419.984 899.848C418.199 903.136 415.193 908.116 414.723 918.92C414.065 933.388 423.836 927.469 423.836 927.469L417.072 921.175H407.395H404.576C400.912 921.175 398 924.745 398 929.066C398 933.388 400.912 936.958 404.576 936.958H407.395H417.072H567.955L568.049 923.429C568.237 923.335 569.083 886.789 524.363 881.246Z" fill="#110580"/>
<path d="M560.251 943.158H423.93C419.608 943.158 416.038 939.588 416.038 935.267C416.038 930.945 419.608 927.375 423.93 927.375H560.251C564.573 927.375 568.143 930.945 568.143 935.267C568.143 939.588 564.573 943.158 560.251 943.158Z" fill="#110580"/>
<path d="M537.986 900.693C529.624 899.19 520.793 899.753 513.371 904.169C508.109 907.269 503.882 912.155 501.627 917.886C500.781 919.953 500.312 922.02 500.218 924.18C495.144 923.899 489.789 923.899 485.092 925.872C482.649 926.905 480.582 928.596 479.549 931.133C478.609 933.481 478.609 936.3 479.643 938.649C480.77 941.373 483.307 943.064 486.219 943.064C487.347 943.064 487.347 941.185 486.219 941.185C481.428 941.092 479.737 935.642 481.334 931.79C483.213 927.093 489.414 926.247 493.735 926.059C496.272 925.965 498.715 925.965 501.251 926.153C501.721 926.247 502.191 925.684 502.191 925.214C501.909 920.798 504.164 916.101 506.888 912.531C510.834 907.269 516.659 903.793 522.954 902.478C527.839 901.445 532.818 901.632 537.704 902.572C538.643 902.666 539.113 900.881 537.986 900.693Z" fill="#787CCB"/>
<path d="M551.044 941.186C557.15 942.595 563.633 942.877 569.834 944.005C573.498 944.662 581.108 946.353 574.437 949.36C566.076 953.212 554.708 950.581 545.876 951.051C536.106 951.615 525.395 954.151 518.913 962.043C512.242 970.029 514.779 987.316 527.932 985.812C535.824 984.873 539.206 976.887 534.227 970.686C533.945 970.405 533.757 970.029 533.475 969.747C534.226 971.156 535.072 972.471 535.918 973.881C535.354 972.377 534.414 974.35 536.199 973.505C538.266 972.471 539.958 971.25 542.118 970.499C546.628 968.995 551.419 968.525 556.117 968.056C565.794 967.116 578.195 967.21 585.899 960.352C593.603 953.588 594.73 941.28 585.805 934.891C577.256 928.785 560.627 929.536 551.044 932.637C547.286 934.234 546.816 940.153 551.044 941.186Z" fill="#110580"/>
<path d="M425.715 908.209C426.091 910.464 428.064 912.155 430.131 912.625C432.386 913.094 434.829 912.437 436.426 910.746C437.083 909.994 435.956 908.961 435.392 909.712C434.265 911.028 432.292 911.591 430.601 911.215C428.91 910.84 427.501 909.524 427.219 907.833C426.937 906.894 425.528 907.27 425.715 908.209Z" fill="#787CCB"/>
<path d="M446.572 913.188C446.572 915.443 448.639 917.04 450.706 917.416C453.149 917.886 455.591 916.758 457.376 915.161C458.128 914.503 457.095 913.47 456.343 914.128C454.934 915.349 453.055 916.194 451.176 916.007C449.767 915.819 448.076 914.785 448.076 913.188C448.076 912.249 446.572 912.249 446.572 913.188Z" fill="#787CCB"/>
<path d="M439.808 922.771C438.399 921.643 436.708 920.892 434.923 920.704C434.641 920.61 434.265 920.892 434.171 921.174C433.983 921.456 434.077 921.831 434.171 922.113C434.265 922.207 434.265 922.301 434.265 922.395C434.171 922.113 434.265 922.489 434.359 922.489C434.453 922.583 434.453 922.771 434.453 922.959C434.453 923.053 434.547 923.053 434.547 923.241V923.335C434.547 923.428 434.547 923.616 434.641 923.804C434.735 924.462 434.735 925.12 434.735 925.777C434.735 925.871 434.735 925.871 434.735 925.871V925.965V926.059C434.829 926.435 435.392 926.717 435.674 926.623C435.768 926.623 435.768 926.623 435.768 926.623C435.862 926.529 436.05 926.529 436.238 926.341C436.332 926.247 436.332 926.247 436.332 926.247C436.426 926.153 436.614 926.059 436.802 925.965C436.896 925.871 436.99 925.871 437.084 925.871C437.177 925.871 437.177 925.777 437.177 925.777C437.365 925.683 437.553 925.683 437.647 925.589C438.399 925.307 439.15 924.932 439.714 924.462C440.09 923.71 440.184 923.053 439.808 922.771ZM437.177 925.495C437.271 925.495 437.271 925.495 437.177 925.495C437.365 925.401 437.271 925.495 437.177 925.495Z" fill="#787CCB"/>
<path d="M693.472 422.77C688.68 408.678 676.373 397.31 661.716 392.706C647.06 388.103 630.431 390.17 616.996 397.592C610.42 401.256 604.501 406.235 600.837 412.624C597.173 419.012 595.951 426.904 598.676 433.762C601.964 442.03 610.138 447.479 618.405 451.425C627.331 455.559 639.451 458.377 650.725 455.559C660.026 461.29 669.42 467.021 678.721 472.752C677.03 466.363 671.863 453.68 671.675 453.68L672.896 453.586C679.661 451.237 685.768 447.009 690.184 441.56C692.344 438.93 694.129 435.829 694.693 432.447C695.257 429.065 694.505 425.871 693.472 422.77Z" fill="#FCFAF8"/>
<path d="M627.144 383.782C623.48 372.789 612.018 366.495 600.838 363.019C575.472 355.033 547.287 356.63 522.954 367.434C511.586 372.508 500.594 380.117 495.614 391.485C491.293 401.444 492.232 413.188 497.211 422.865C502.19 432.541 510.834 439.964 520.699 444.473C517.222 453.21 512.055 464.015 508.673 472.752C515.625 468.618 522.578 464.484 529.53 460.445C533.1 458.378 536.67 456.217 540.71 454.995C546.159 453.304 551.89 453.492 557.527 453.116C573.405 452.177 589.094 447.48 602.059 438.366C614.93 429.159 624.795 415.255 627.708 399.659C628.647 394.304 628.835 388.761 627.144 383.782Z" fill="white"/>
<path d="M606.569 493.515C606.099 489.569 603.186 486.28 600.086 483.744C591.16 476.791 579.041 474.443 567.767 476.228C563.633 476.885 559.405 478.107 555.929 480.55C548.789 485.529 545.595 495.488 548.413 503.661C548.789 504.789 550.199 506.01 550.199 506.01C546.723 512.68 544.656 517.566 541.743 524.33C548.601 519.069 556.117 514.559 564.009 510.801L564.948 511.271C574.343 517.002 586.745 514.183 596.234 508.64C601.777 505.446 607.414 499.997 606.569 493.515Z" fill="white"/>
<path d="M770.229 555.522C770.229 555.522 766.565 566.233 765.72 569.991C764.78 574.406 764.78 580.043 764.78 580.043L761.116 579.292C761.116 579.292 762.056 573.561 764.404 567.548C765.532 564.354 770.229 555.522 770.229 555.522Z" fill="#E0E0E0"/>
<path d="M841.725 562.286C841.725 562.286 843.134 572.621 843.416 574.875C843.979 579.479 843.792 586.525 843.792 586.525L847.456 586.807C847.456 586.807 846.61 578.07 845.013 572.339C844.167 569.52 841.725 562.286 841.725 562.286Z" fill="#E0E0E0"/>
<path d="M830.921 496.051C825.754 496.051 821.62 488.817 821.62 479.61C821.62 470.403 825.66 463.169 830.921 463.169C836.088 463.169 840.222 470.403 840.222 479.61C840.222 488.817 836.088 496.051 830.921 496.051ZM830.921 465.424C827.069 465.424 823.969 471.906 823.969 479.704C823.969 487.408 827.163 493.984 830.921 493.984C834.679 493.984 837.873 487.502 837.873 479.704C837.873 471.906 834.679 465.424 830.921 465.424Z" fill="white"/>
<path d="M871.038 499.339C875.077 497.46 874.796 495.487 873.762 492.011L853.845 435.829C847.926 415.912 828.478 401.35 805.46 401.35C790.522 401.35 781.879 407.644 781.879 407.644C781.973 407.644 791.556 409.993 798.696 416.663C805.836 423.428 801.608 431.601 810.158 439.681C815.889 445.036 826.035 447.761 826.035 447.761C826.035 448.606 827.633 486.844 828.29 503.003C828.572 508.734 831.767 508.171 843.228 506.573C858.448 504.506 864.367 502.534 871.038 499.339Z" fill="#110580"/>
<path d="M799.447 434.045C793.529 434.045 788.455 437.333 785.919 442.312C783.758 441.185 781.409 440.621 778.967 440.621C778.215 440.621 777.369 440.715 776.618 440.809C774.739 434.515 768.914 429.911 761.962 429.911C753.506 429.911 746.647 436.769 746.647 445.225C746.647 453.68 753.506 460.539 761.962 460.539C770.417 460.539 777.275 453.68 777.275 445.225C777.275 444.567 777.182 443.816 777.088 443.158C779.812 442.782 782.631 443.252 784.979 444.473C784.416 445.977 784.134 447.668 784.134 449.359C784.134 457.814 790.992 464.673 799.447 464.673C807.903 464.673 814.761 457.814 814.761 449.359C814.855 440.997 807.997 434.045 799.447 434.045ZM761.962 458.19C754.821 458.19 748.996 452.365 748.996 445.225C748.996 438.085 754.821 432.26 761.962 432.26C769.102 432.26 774.926 438.085 774.926 445.225C774.926 452.365 769.008 458.19 761.962 458.19ZM799.447 462.418C792.307 462.418 786.483 456.593 786.483 449.453C786.483 442.312 792.307 436.488 799.447 436.488C806.588 436.488 812.412 442.312 812.412 449.453C812.506 456.499 806.682 462.418 799.447 462.418Z" fill="#E0E0E0"/>
<path d="M723.724 631.245L711.51 630.024C703.806 629.272 697.887 623.541 698.357 617.247L698.545 615.086C699.015 608.885 705.685 604.376 713.389 605.221L725.603 606.443C733.307 607.288 739.225 612.925 738.756 619.22L738.568 621.38C738.098 627.675 731.428 632.091 723.724 631.245Z" fill="#FCB58A"/>
<path d="M564.009 498.118C565.888 498.118 567.485 496.709 567.485 494.83C567.485 492.951 565.982 491.542 564.009 491.542C562.036 491.542 560.533 492.951 560.533 494.83C560.533 496.709 562.13 498.118 564.009 498.118Z" fill="#D6D7F0"/>
<path d="M575.941 498.118C577.82 498.118 579.417 496.615 579.417 494.83C579.417 493.045 577.914 491.542 575.941 491.542C574.062 491.542 572.465 493.045 572.465 494.83C572.465 496.709 574.062 498.118 575.941 498.118Z" fill="#D6D7F0"/>
<path d="M587.027 498.118C588.906 498.118 590.503 496.615 590.503 494.83C590.503 493.045 589 491.542 587.027 491.542C585.148 491.542 583.551 493.045 583.551 494.83C583.645 496.709 585.148 498.118 587.027 498.118Z" fill="#D6D7F0"/>
<path d="M646.216 436.957C646.122 437.709 645.934 438.461 646.216 439.212C646.404 439.87 646.686 440.434 647.156 440.903C647.532 441.279 647.908 441.561 648.377 441.655C648.847 441.937 649.316 442.031 649.88 441.937C650.538 441.937 651.195 441.749 651.759 441.467C651.759 441.467 651.853 441.467 651.853 441.373C651.571 441.467 651.196 441.655 650.914 441.749H651.008C650.632 441.843 650.35 441.843 649.974 441.843C649.974 441.843 649.974 441.843 650.068 441.843C650.444 441.749 650.726 441.749 651.102 441.749C651.384 441.655 651.759 441.467 652.041 441.373C652.323 441.185 652.605 440.903 652.887 440.715C653.075 440.434 653.357 440.152 653.545 439.87C653.639 439.588 653.826 439.212 653.92 438.93C654.014 438.555 654.014 438.273 654.014 437.897C653.92 437.521 653.92 437.239 653.92 436.864C653.826 436.394 653.544 435.924 653.168 435.548C652.981 435.266 652.699 434.985 652.417 434.797C652.135 434.515 651.853 434.327 651.572 434.327C651.29 434.139 650.914 434.045 650.632 434.045C650.256 433.951 649.974 433.951 649.599 434.045C649.223 434.045 648.941 434.139 648.659 434.327C648.377 434.421 648.001 434.609 647.814 434.797C647.532 434.985 647.25 435.266 647.062 435.548C646.592 436.018 646.31 436.488 646.216 436.957Z" fill="#D6D7F0"/>
<path d="M637.291 414.409C638.794 412.061 642.834 410.745 645.558 411.027C646.874 411.121 649.504 411.873 650.256 413.094C650.82 413.94 650.913 413 649.974 413.94C649.41 414.503 648.377 414.879 647.719 415.255C643.397 418.167 638.794 426.341 645.37 429.629C647.907 430.944 651.289 429.347 651.289 426.247C651.289 424.838 650.82 423.898 651.571 422.677C652.041 421.925 653.262 421.268 654.014 420.798C656.081 419.295 657.96 417.791 658.429 415.161C659.181 410.463 654.953 406.799 650.913 405.296C646.498 403.605 641.518 404.169 637.666 406.893C635.599 408.396 631.466 413.094 635.318 414.973C635.975 415.349 636.821 415.161 637.291 414.409Z" fill="#D6D7F0"/>
<path d="M592.1 645.808H581.86C574.908 645.808 569.177 640.359 568.801 633.406L567.11 603.249C567.016 602.121 567.955 601.182 569.083 601.182H604.784C605.911 601.182 606.85 602.121 606.757 603.249L605.066 633.406C604.784 640.359 599.053 645.808 592.1 645.808Z" fill="#FF5856"/>
<path d="M606.475 608.039L606.192 612.643C610.42 613.488 613.521 617.246 613.521 621.756C613.521 626.641 609.763 630.493 605.065 630.963L604.783 635.566C612.205 635.285 618.124 629.178 618.124 621.756C618.124 614.803 613.051 609.073 606.475 608.039Z" fill="#FF5856"/>
<path d="M589.658 594.135C589.658 594.135 580.92 586.055 581.202 580.043C581.672 570.929 589.751 567.547 586.651 558.904C585.148 554.864 579.041 541.617 579.041 541.617C579.041 541.617 589.188 551.576 592.758 557.777C596.046 563.32 595.67 572.245 592.1 576.473C584.396 585.961 589.658 594.135 589.658 594.135Z" fill="#DCDCED"/>
<path d="M598.113 393.552H523.141C521.45 393.552 520.041 392.143 520.041 390.452C520.041 388.761 521.45 387.352 523.141 387.352H598.113C599.804 387.352 601.214 388.761 601.214 390.452C601.214 392.049 599.804 393.552 598.113 393.552Z" fill="#D6D7F0"/>
<path d="M573.592 423.711H523.141C521.45 423.711 520.041 422.301 520.041 420.61C520.041 418.919 521.45 417.51 523.141 417.51H573.592C575.283 417.51 576.693 418.919 576.693 420.61C576.693 422.301 575.283 423.711 573.592 423.711Z" fill="#D6D7F0"/>
<path d="M556.023 408.209H523.046C521.355 408.209 519.946 406.799 519.946 405.108C519.946 403.417 521.355 402.008 523.046 402.008H556.023C557.714 402.008 559.124 403.417 559.124 405.108C559.217 406.893 557.808 408.209 556.023 408.209Z" fill="#D6D7F0"/>
<path d="M591.912 408.209H571.243C569.552 408.209 568.143 406.799 568.143 405.108C568.143 403.417 569.552 402.008 571.243 402.008H591.912C593.603 402.008 595.012 403.417 595.012 405.108C595.012 406.893 593.603 408.209 591.912 408.209Z" fill="#D6D7F0"/>
</svg>
