<svg id="Layer_1" height="512" viewBox="0 0 512 512" width="512" xmlns="http://www.w3.org/2000/svg" data-name="Layer 1"><path d="m176 178h160v286h-160z" fill="#4689d3"/><path d="m72.98 278.75h80.86v25.05h-80.86z" fill="#ff8aa3"/><path d="m358.09 206.75h80.87v35.05h-80.87z" fill="#ffdf9f"/><path d="m51 303h125v161h-125z" fill="#eb7288"/><path d="m138.29 464.26v.04h-49.76v-.04-29.13h49.76z" fill="#c95d75"/><path d="m336 241v223h125v-.32-222.68z" fill="#f3ce7d"/><path d="m423.41 464.26v.04h-49.77v-.04-41.13h49.77z" fill="#ceac67"/><path d="m30.06 463.3h451.88v30.24h-451.88z" fill="#c79a83"/><path d="m72.98 278.75h31v24.25h-31z" fill="#e87c98"/><path d="m51 303h31v160.3h-31z" fill="#ce637a"/><path d="m30.06 463.3h31v30.24h-31z" fill="#aa806d"/><path d="m112.684 283.759a6 6 0 0 1 -6-6v-20.265a6 6 0 0 1 12 0v20.265a6 6 0 0 1 -6 6z" fill="#eb7288"/><path d="m150.39 373.957h-73.933a6 6 0 0 1 0-12h73.933a6 6 0 0 1 0 12z" fill="#ad5068"/><path d="m150.39 407.966h-73.933a6 6 0 0 1 0-12h73.933a6 6 0 0 1 0 12z" fill="#ad5068"/><path d="m150.39 339.948h-73.933a6 6 0 0 1 0-12h73.933a6 6 0 0 1 0 12z" fill="#ad5068"/><g fill="#3773aa"><path d="m205.388 444.153a6 6 0 0 1 -6-6v-225.914a6 6 0 0 1 12 0v225.914a6 6 0 0 1 -6 6z"/><path d="m239.169 444.153a6 6 0 0 1 -6-6v-225.914a6 6 0 0 1 12 0v225.914a6 6 0 0 1 -6 6z"/><path d="m271.9 444.153a6 6 0 0 1 -6-6v-225.914a6 6 0 0 1 12 0v225.914a6 6 0 0 1 -6 6z"/><path d="m305.676 444.153a6 6 0 0 1 -6-6v-225.914a6 6 0 1 1 12 0v225.914a6 6 0 0 1 -6 6z"/></g><path d="m255 147.732a6 6 0 0 1 -6-6v-26.732a6 6 0 0 1 12 0v26.728a6 6 0 0 1 -6 6.004z" fill="#d4e1f4"/><path d="m399.251 211.759a6 6 0 0 1 -6-6v-24.265a6 6 0 0 1 12 0v24.265a6 6 0 0 1 -6 6z" fill="#f3ce7d"/><path d="m435.478 361.957h-73.933a6 6 0 1 1 0-12h73.933a6 6 0 0 1 0 12z" fill="#b29259"/><path d="m435.478 395.966h-73.933a6 6 0 1 1 0-12h73.933a6 6 0 0 1 0 12z" fill="#b29259"/><path d="m435.478 327.948h-73.933a6 6 0 1 1 0-12h73.933a6 6 0 0 1 0 12z" fill="#b29259"/><path d="m435.478 293.948h-73.933a6 6 0 1 1 0-12h73.933a6 6 0 0 1 0 12z" fill="#b29259"/><path d="m272.676 47.636h28.622v12h-28.622z" fill="#d4e1f4" transform="matrix(.707 -.707 .707 .707 46.13 218.64)"/><path d="m309.72 12.462a19.271 19.271 0 1 0 19.271 19.271 19.294 19.294 0 0 0 -19.271-19.271z" fill="#6d7486"/><path d="m313.26 178.25v.04h-114.52v-15.05a21.3 21.3 0 0 1 21.3-21.3h71.92a21.3 21.3 0 0 1 21.3 21.3z" fill="#68adea"/><path d="m238.05 20.12 82.45 82.45a58.3 58.3 0 0 1 -82.45-82.45z" fill="#b0b5ca"/><path d="m268.05 102.57a58.4 58.4 0 0 1 -12.158-64.608l-17.842-17.842a58.281 58.281 0 0 0 56.228 97.534 57.935 57.935 0 0 1 -26.228-15.084z" fill="#959baf"/></svg>