<svg id="Layer_1" enable-background="new 0 0 512 512" height="512" viewBox="0 0 512 512" width="512" xmlns="http://www.w3.org/2000/svg"><g><path d="m293.304 22.275-75.102 483.747-.025.01c8.81.959 17.756 1.467 26.821 1.467 135.309 0 244.999-109.69 244.999-244.999.001-118.771-84.519-217.792-196.693-240.225z" fill="#ffdd40"/><path d="m450.039 65.192h-95.792c52.689 63.117 50.873 158.567-10.058 219.496-63.552 63.552-166.96 63.552-230.513 0-61.074-61.076-62.605-156.548-10.057-219.496h-3.868c-30.441 22.446-55.499 51.769-72.888 85.673h.001l37.124 276.707c9.248 10.132 19.333 19.488 30.15 27.952h355.9c17.745 0 32.131-14.386 32.131-32.132v-326.069c.001-17.746-14.385-32.131-32.13-32.131z" fill="#47477f"/><path d="m179.504 453.697c-12.562-5.005-14.511-14.468-14.322-20.525.089-2.855-1.665-5.507-4.415-6.278-13.369-3.748-13.474-21.643-13.474-21.643s0-42 0-58c0-12 10.537-20.242 15.805-23.613 1.411-.903 2.38-2.321 2.762-3.918-18.981-7.937-36.758-19.607-52.184-35.032-61.074-61.076-62.605-156.548-10.057-219.496h-3.868c-30.441 22.446-55.499 51.769-72.888 85.673h.001l37.124 276.707c9.248 10.132 19.333 19.488 30.15 27.952h87.868c-.656-.781-1.493-1.425-2.502-1.827z" fill="#3b3868"/><path d="m449.735 427.577c2.242 0 4.059-1.817 4.059-4.059v-275.928h-63.367c.994 7.321 1.504 14.757 1.504 22.272 0 43.538-16.954 84.471-47.741 115.257-63.552 63.552-166.96 63.552-230.513 0-30.786-30.786-47.741-71.719-47.741-115.257 0-7.515.51-14.951 1.504-22.272h-38.864c-18.236 34.27-28.576 73.382-28.576 114.911 0 63.603 24.248 121.531 63.99 165.076z" fill="#42c3fc"/><path d="m162.262 427.577c-.459-.287-.952-.531-1.496-.684-13.369-3.748-13.474-21.643-13.474-21.643s0-42 0-58c0-12 10.537-20.242 15.805-23.613 1.296-.829 2.214-2.096 2.653-3.533-18.94-7.936-36.678-19.591-52.074-34.986-30.785-30.785-47.74-71.718-47.74-115.256 0-7.515.509-14.951 1.504-22.272h-38.864c-18.236 34.27-28.576 73.382-28.576 114.911 0 63.603 24.248 121.531 63.99 165.076z" fill="#1aa9e8"/><path d="m502.013 455.523h-407.874c34.971 27.366 77.56 45.44 124.064 50.499h252.664c22.224 0 40.861-17.636 41.129-39.859.003-.244.004-.488.004-.732-.008-5.482-4.505-9.908-9.987-9.908z" fill="#e9efff"/><path d="m189.681 501.191c-2.328-5.966-1.057-12.103.343-16.071.868-2.458.105-5.192-1.893-6.867-6.211-5.207-6.003-12.218-4.801-17.071.51-2.059-.041-4.136-1.324-5.659h-87.868c27.685 21.664 60.148 37.497 95.543 45.668z" fill="#bec8f7"/><path d="m128.474 455.523v9.772c0 8.513 6.965 15.478 15.478 15.478h165.097c8.513 0 15.478-6.965 15.478-15.478v-9.772z" fill="#bec8f7"/><path d="m128.474 465.295c0 8.513 6.965 15.478 15.478 15.478h45.979c-.376-.956-.976-1.83-1.798-2.52-6.211-5.207-6.003-12.218-4.801-17.071.51-2.059-.042-4.136-1.325-5.659h-53.533z" fill="#a2b6f4"/><path d="m66.987 150.865c2.003-17.772 6.864-34.903 14.377-50.847h-19.718c-13.615 15.351-25.331 32.421-34.781 50.847z" fill="#47477f"/><path d="m449.734 100.017h-73.231c7.512 15.944 12.374 33.076 14.376 50.847h62.915v-46.788c0-2.242-1.818-4.059-4.06-4.059z" fill="#5f5f9b"/><path d="m355.176 273.772 34.908 34.907c-5.422.571-10.691 2.919-14.837 7.066s-6.495 9.415-7.065 14.837l-34.908-34.907c3.946-3.266 7.779-6.737 11.473-10.43 3.693-3.694 7.163-7.527 10.429-11.473z" fill="#dae2fe"/><path d="m383.091 360.095-8.656-8.656c-10.08-10.08-10.08-26.424 0-36.505 10.08-10.08 26.424-10.08 36.504 0l8.656 8.656z" fill="#e80054"/><path d="m486.415 390.409 8.656 8.656c10.081 10.081 10.08 26.424 0 36.504-10.081 10.08-26.424 10.081-36.505 0l-8.656-8.656z" fill="#ff4155"/><path d="m408.94 325.659h51.625v99.185h-51.625z" fill="#ff7186" transform="matrix(.707 -.707 .707 .707 -138.007 417.327)"/><path d="m421.945 362.443c8.638-8.638 21.685-10.171 31.895-4.61l-35.901-35.901-36.504 36.505 35.901 35.901c-5.562-10.21-4.03-23.257 4.609-31.895z" fill="#ff4155"/><circle cx="228.933" cy="169.432" fill="#e9efff" r="164.932"/><path d="m112.309 286.056c64.41 64.41 168.839 64.41 233.249 0 24.191-24.191 39.294-54.027 45.315-85.267-.893-.275-1.877-.247-2.787.142-11.619 4.975-16.907-2.093-18.98-6.541-.815-1.749-2.685-2.712-4.591-2.41-12.714 2.009-17.867-5.194-19.708-9.164-.683-1.473-2.203-2.387-3.827-2.353-44.971.93-65.925-25.113-70.369-31.483-.66-.945-1.666-1.571-2.806-1.745-5.194-.792-22.372-2.428-66.777.355-47.325 2.966-58.642-35.78-61.004-47.776-.382-1.939-2.057-3.306-4.032-3.384-11.289-.45-14.447-8.691-15.324-13.649-.351-1.987-2.121-3.426-4.138-3.392-12.528.208-14.905-8.394-15.338-12.305-.057-.511-.225-.989-.452-1.435-52.574 64.774-48.719 160.12 11.569 220.407z" fill="#bec8f7"/><g><ellipse cx="231.415" cy="169.398" fill="#ff5252" rx="128.384" ry="128.384" transform="matrix(.707 -.707 .707 .707 -52.003 213.251)"/></g><path d="m231.415 297.783c63.134 0 115.623-45.571 126.37-105.613-7.898-.938-11.506-6.175-12.98-9.354-.683-1.473-2.21-2.506-3.827-2.353-50.882 4.788-80.615-25.631-85.059-32.001-.66-.945-1.666-1.571-2.806-1.745-5.194-.793 1.175-7.897-43.317-7.897-36.729 0-62.17-22.758-69.774-39.007-.838-1.79-2.057-3.306-4.032-3.384-3.587-.143-6.348-1.076-8.481-2.437-15.393 21.173-24.479 47.227-24.479 75.406.001 70.905 57.48 128.385 128.385 128.385z" fill="#e80054"/><path d="m217.527 224.106c-1.433-1.316-1.865-3.4-1.075-5.178l1.447-3.257c.372-.838.471-1.745.32-2.61l-15.53 12.517c-3.117 2.512-7.175 1.658-8.972-1.919-4.663-9.281-7.377-18.664-9.276-30.203-.666-4.045.238-8.154 2.463-11.512-14.542 9.14-39.5 23.617-55.975 28.72-.055.017-.108.038-.163.056l6.359 48.441c23.31 23.846 55.827 38.654 91.808 38.654.83 0 1.656-.016 2.482-.031v-61.39c0-1.269-.532-2.479-1.466-3.337z" fill="#bec8f7"/><path d="m189.426 215.201.368-.63c-2.387-6.477-4.066-13.297-5.353-21.114-.666-4.045.238-8.154 2.463-11.512-14.542 9.14-39.5 23.617-55.976 28.72-.055.017-.108.038-.163.056l4.335 33.02c.726-.144 1.462-.302 2.221-.489 32.363-8.001 52.105-28.051 52.105-28.051z" fill="#a2b6f4"/><path d="m215.849 210.982c4.561 4.756-4.481 9.375.535 13.983 9.951 8.707 12.247 10.665 12.552 11.009.303-.343 2.661-2.356 12.552-11.009 1.492-1.371 1.943-3.541 1.12-5.392-.999-2.679-2.324-3.984-1.782-6.352.349-1.564 1.312-2.352 2.373-3.48 6.674-7.119 13.799-16.134 17.134-25.263v-.001c1.21-3.309 1.77-5.952 1.996-7.988-1.773-3.953-2.468-11.476-2.616-15.789-8.706 10.141-18.561 16.743-31.916 16.332-12.346-.377-21.54-6.894-29.642-16.332-.136 3.943-.584 8.727-1.738 13.273-.234.921-.557 1.809-.951 2.661.662 6.307 4.496 17.785 20.383 34.348z" fill="#fcad6d"/><g><path d="m217.03 215.201c.989-2.235 1.817-4.548 2.425-6.943 2.695-10.617 4.05-21.686 4.673-31.543-10.531-1.432-18.697-7.537-25.975-16.013-.136 3.943-.584 8.727-1.738 13.273-.234.921-.557 1.809-.951 2.661.663 6.304 4.497 17.783 20.384 34.346 1.36 1.417 1.507 2.823 1.182 4.219z" fill="#fd995b"/></g><path d="m137.322 259.363-6.393-48.698c-2.719.842-5.21 2.314-7.225 4.325-3.832 3.825-6.76 8.326-9.002 13.093 5.946 11.558 13.599 22.092 22.62 31.28z" fill="#dae2fe"/><path d="m320.94 258.958 6.325-48.181c-.11-.036-.217-.078-.328-.112-11.751-3.64-27.36-11.865-39.474-18.816-7.314-4.197-13.36-7.93-16.501-9.904 2.225 3.358 3.128 7.467 2.463 11.512-1.898 11.539-4.613 20.922-9.276 30.203-1.797 3.577-5.856 4.431-8.972 1.919l-15.531-12.517c-.151.865-.053 1.772.32 2.61l1.447 3.257c.79 1.778.358 3.861-1.075 5.178l-12.422 8.951c-.934.858-1.466 2.068-1.466 3.337v61.39c.826.016 1.652.031 2.482.031 36.084 0 68.685-14.892 92.008-38.858z" fill="#dae2fe"/><path d="m343.164 228.083c-2.242-4.767-5.171-9.268-9.002-13.093-2.014-2.011-4.506-3.483-7.225-4.325l-6.393 48.698c9.021-9.188 16.674-19.722 22.62-31.28z" fill="#e9efff"/><path d="m217.013 210.68c-7.219-7.548-14.662-16.983-18.224-26.734v-.001c-3.091-8.455-1.765-12.382-1.738-12.84l-5.104 4.952-3.581 3.696c-3.592 3.707-5.205 8.902-4.367 13.995 1.923 11.69 4.673 21.196 9.397 30.598 1.821 3.624 5.932 4.489 9.09 1.944l15.786-12.723c-.064-1.059-.492-2.088-1.259-2.887z" fill="#dae2fe"/><path d="m240.853 210.68c7.219-7.548 14.662-16.983 18.224-26.734v-.001c3.091-8.455 1.765-12.382 1.738-12.84l5.104 4.952 3.581 3.696c3.592 3.707 5.206 8.902 4.367 13.995-1.923 11.69-4.673 21.196-9.397 30.598-1.821 3.624-5.932 4.489-9.09 1.944l-15.786-12.723c.064-1.059.492-2.088 1.259-2.887z" fill="#e9efff"/><g><path d="m228.933 310.648c-36.184.003-72.355-13.769-99.902-41.315-26.685-26.684-41.381-62.163-41.381-99.902s14.696-73.217 41.381-99.902c26.684-26.684 62.163-41.381 99.901-41.381s73.217 14.697 99.902 41.381c26.684 26.684 41.381 62.163 41.381 99.902s-14.696 73.217-41.381 99.902c-27.539 27.541-63.726 41.312-99.901 41.315zm0-256.703c-30.847 0-59.848 12.013-81.66 33.826h-.001c-21.812 21.812-33.825 50.813-33.825 81.66s12.013 59.848 33.825 81.661c45.029 45.028 118.294 45.028 163.322 0 21.813-21.812 33.826-50.813 33.826-81.661 0-30.847-12.013-59.848-33.825-81.66-21.814-21.813-50.815-33.826-81.662-33.826zm-90.781 24.706h.013z" fill="#ff7186"/></g><path d="m328.834 269.334c21.003-21.002 34.572-47.454 39.402-76.165-.957-.946-2.328-1.408-3.723-1.188-12.714 2.009-17.867-5.194-19.708-9.164-.241-.521-.591-.967-1.009-1.331-2.71 26.291-14.256 50.661-33.203 69.606-45.028 45.028-118.293 45.028-163.322 0-21.812-21.812-33.825-50.813-33.825-81.661 0-26.487 8.864-51.607 25.176-71.99-.716-.604-1.636-.973-2.633-1.013-11.289-.45-14.447-8.691-15.324-13.649-.173-.978-.692-1.82-1.412-2.422-20.471 25.111-31.603 56.236-31.603 89.074 0 37.739 14.696 73.217 41.381 99.902 27.546 27.546 63.718 41.317 99.902 41.314 36.175-.002 72.362-13.773 99.901-41.313z" fill="#ff5252"/><g><path d="m218.639 14.671c-30.912 4.212-33.85 21.738-33.864 28.169-.003 1.349-.75 2.598-1.962 3.188-16.08 7.822-7.41 45.522-7.41 45.522 1.615.108 3.305.762 4.566 1.372.309-1.921.813-3.813 1.524-5.641.542-1.393 1.22-2.8 2.068-4.13 1.471-2.307 2.14-5.029 1.941-7.749-.578-7.865-.3-23.362 10.082-28.034 8.795-3.957 19.583-1.666 26.463.622 4.468 1.486 9.308 1.486 13.776 0 6.88-2.288 17.668-4.579 26.463-.622 10.352 4.658 10.658 20.081 10.087 27.966-.199 2.742.453 5.491 1.935 7.816.875 1.372 1.569 2.828 2.12 4.265.685 1.786 1.172 3.632 1.473 5.506 1.589-.77 3.86-1.608 5.803-1.334.238-8.243.999-17.13.999-17.13 9.159-44.866-32.78-64.321-66.064-59.786z" fill="#47477f"/></g><path d="m221.586 47.844c-.092-.163-.178-.328-.275-.491-12.913-21.774 5.322-33.153 5.322-33.153l-.195-.148c-2.633.064-5.242.27-7.8.619-30.912 4.212-33.851 21.738-33.864 28.169-.003 1.349-.75 2.598-1.962 3.188-16.08 7.822-7.41 45.522-7.41 45.522 1.615.108 3.305.762 4.565 1.372.309-1.921.813-3.813 1.524-5.641.542-1.393 1.22-2.8 2.068-4.13 1.471-2.307 2.14-5.029 1.941-7.749-.578-7.865-.3-23.362 10.082-28.034 8.605-3.872 19.11-1.76 26.004.476z" fill="#3b3868"/><path d="m287.394 92.524c-2.408-2.207-7.203-1.088-9.277.263.454 2.829.48 5.723.088 8.581l-2.447 17.822c0 1.437-.045 2.846-.129 4.231 5.967 1.8 8.931-3.557 9.43-7.233.215-1.582.566-3.142 1.054-4.664 1.588-4.958 7.314-13.472 1.281-19z" fill="#fcad6d"/><g><path d="m281.937 110.67c-1.813 0-3.476-.643-4.774-1.713l-1.405 10.232c0 1.437-.045 2.846-.129 4.231 5.967 1.8 8.931-3.557 9.43-7.233.215-1.582.566-3.142 1.054-4.664.303-.946.756-2.021 1.25-3.18-1.367 1.432-3.29 2.327-5.426 2.327z" fill="#fd995b"/></g><path d="m170.908 92.524c2.408-2.207 7.203-1.088 9.277.263-.454 2.829-.48 5.723-.087 8.581l2.447 17.822c0 1.437.045 2.846.129 4.231-5.967 1.8-8.931-3.557-9.43-7.233-.215-1.582-.566-3.142-1.054-4.664-1.588-4.958-7.314-13.472-1.282-19z" fill="#fcad6d"/><g><path d="m181.067 108.427c-1.362 1.384-3.255 2.243-5.35 2.243-1.645 0-3.162-.535-4.4-1.433.343.82.649 1.589.872 2.286.487 1.522.839 3.082 1.054 4.664.499 3.676 3.464 9.033 9.43 7.233-.083-1.385-.129-2.795-.129-4.231z" fill="#fd995b"/></g><path d="m274.631 82.944c-1.405-2.203-2.071-4.896-1.876-7.582.621-8.574.107-23.656-10.312-28.345-8.751-3.937-19.372-1.843-26.741.608-4.364 1.453-9.172 1.452-13.536 0-7.369-2.451-17.99-4.547-26.741-.608-4.481 2.016-11.778 8.389-10.307 28.413.194 2.638-.474 5.307-1.881 7.514-3.012 4.723-4.713 11.499-3.737 18.606l2.444 17.773c0 2.604.146 5.106.405 7.516-.003-.007-.007-.014-.009-.021 4.231 29.97 21.373 44.132 33.838 50.485 7.99 4.072 17.414 4.085 25.406.018 12.467-6.344 29.712-20.505 33.947-50.503-.003.007-.007.015-.01.023.257-2.395.401-4.879.401-7.465l2.447-17.822c.971-7.079-.709-13.856-3.738-18.61z" fill="#f9ba8f"/><g><path d="m208.882 126.82c.003.007.006.014.009.021-.259-2.41-.405-4.912-.405-7.516l-2.444-17.773c-.976-7.107.725-13.883 3.737-18.606 1.406-2.208 2.075-4.876 1.881-7.514-1.399-19.05 5.136-25.741 9.634-28.084-7.319-2.323-17.455-4.117-25.871-.329-4.481 2.016-11.778 8.389-10.307 28.413.194 2.638-.474 5.307-1.881 7.514-3.012 4.723-4.713 11.499-3.737 18.606l2.444 17.773c0 2.604.146 5.106.405 7.516-.003-.007-.007-.014-.009-.021 4.231 29.97 21.373 44.132 33.838 50.485 7.99 4.072 17.414 4.085 25.406.018.194-.098.391-.205.587-.307-12.414-6.486-29.117-20.664-33.287-50.196z" fill="#fcad6d"/></g></g></svg>