<svg id="Capa_1" enable-background="new 0 0 512 512" height="512" viewBox="0 0 512 512" width="512" xmlns="http://www.w3.org/2000/svg"><g><path d="m497.185 464.22h-482.371c-8.182 0-14.814-6.632-14.814-14.813v-232.847c0-8.181 6.632-14.814 14.814-14.814h482.372c8.181 0 14.814 6.632 14.814 14.814v232.847c-.001 8.181-6.633 14.813-14.815 14.813z" fill="#e2f6eb"/><path d="m512 216.558v232.85c0 8.177-6.632 14.809-14.819 14.809h-20.596c8.187 0 14.819-6.632 14.819-14.809v-232.85c0-8.177-6.632-14.809-14.819-14.809h20.596c8.187 0 14.819 6.632 14.819 14.809z" fill="#ceefdd"/><path d="m476.188 274.376v117.216c0 2.965-2.506 5.254-5.467 5.107-.528-.026-1.059-.039-1.594-.039-17.263 0-31.253 13.99-31.253 31.243v.054c.005 2.871-2.249 5.229-5.119 5.229h-353.51c-2.871 0-5.124-2.358-5.119-5.229 0-.018 0-.036 0-.054 0-17.253-13.99-31.243-31.253-31.243-.535 0-1.066.013-1.594.039-2.961.147-5.467-2.142-5.467-5.107v-117.216c0-2.965 2.506-5.254 5.467-5.107.528.026 1.059.039 1.594.039 17.263 0 31.253-13.99 31.253-31.243 0-.018 0-.036 0-.054-.005-2.871 2.249-5.229 5.119-5.229h353.509c2.871 0 5.124 2.358 5.119 5.229v.054c0 17.253 13.99 31.243 31.253 31.243.535 0 1.066-.013 1.594-.039 2.962-.147 5.468 2.142 5.468 5.107z" fill="#6ed5a1"/><path d="m476.183 274.371v117.223c0 2.966-2.503 5.252-5.458 5.108-.536-.031-1.061-.041-1.596-.041-17.27 0-31.255 13.985-31.255 31.244v.051c0 2.873-2.245 5.232-5.118 5.232h-20.205c2.873 0 5.128-2.358 5.118-5.232 0-.02.01-.041 0-.051-3.707-19.185 13.995-45.755 31.255-45.755.535 0 1.071.021 1.596.041 2.966.144 5.468-2.142 5.468-5.108v-91.313c0-2.966-2.502-5.252-5.468-5.108-.525.021-1.068.132-1.596.041-16.032-2.743-33.922-24.879-31.255-42.643.01-.01 0-.031 0-.052.01-2.873-2.245-5.231-5.118-5.231h20.205c2.873 0 5.118 2.358 5.118 5.231v.052c0 17.26 13.985 31.244 31.255 31.244.536 0 1.061-.01 1.596-.041 2.956-.144 5.458 2.153 5.458 5.108z" fill="#46cc8d"/><circle cx="255.999" cy="332.984" fill="#b0e7c9" r="73.773"/><path d="m329.775 332.988c0 40.739-33.036 73.765-73.776 73.765-15.499 0-29.875-4.778-41.749-12.945 7.755 2.78 16.106 4.284 24.808 4.284 40.75 0 73.775-33.036 73.775-73.776 0-25.241-12.667-47.515-31.996-60.81 28.527 10.186 48.938 37.445 48.938 69.482z" fill="#91deb6"/><g fill="#6ed5a1"><path d="m239.064 289.096c-2.761 0-5 2.239-5 5v53.659c0 4.459-3.628 8.087-8.088 8.087s-8.087-3.628-8.087-8.087v-11.779c0-2.761-2.239-5-5-5s-5 2.239-5 5v11.779c0 9.974 8.114 18.087 18.087 18.087s18.088-8.114 18.088-18.087v-53.659c0-2.761-2.239-5-5-5z"/><path d="m269.941 331.815c8.237 0 14.938-6.701 14.938-14.938v-.532c0-2.761-2.239-5-5-5s-5 2.239-5 5v.532c0 2.723-2.215 4.938-4.938 4.938s-4.938-2.215-4.938-4.938v-22.781c0-2.761-2.239-5-5-5s-5 2.239-5 5v22.781c.001 8.237 6.702 14.938 14.938 14.938z"/><path d="m303.907 350.521c-.702-5.025-3.167-9.308-6.94-12.06-2.232-1.627-5.358-1.138-6.986 1.094-1.627 2.231-1.137 5.359 1.094 6.986 2.111 1.54 2.741 4.021 2.929 5.363.42 3.005-.419 6.28-2.189 8.547-3.39 4.341-9.712 6.73-16.902 6.389-2.766-.117-5.1 2-5.231 4.758-.13 2.758 2 5.1 4.758 5.231.602.028 1.2.042 1.794.042 9.712 0 18.389-3.769 23.463-10.267 3.429-4.391 5.004-10.404 4.21-16.083z"/><circle cx="261.402" cy="347.47" r="4.969"/><circle cx="278.481" cy="347.47" r="4.969"/></g><path d="m486.995 151.952c0 11.248-10.082 20.767-13.378 30.917-3.416 10.52-.972 24.123-7.344 32.879-6.436 8.844-20.172 10.693-29.016 17.129-8.756 6.372-14.725 18.901-25.244 22.317-10.15 3.296-22.296-3.224-33.545-3.224-11.248 0-23.395 6.52-33.545 3.224-10.52-3.416-16.488-15.945-25.245-22.317-8.844-6.436-22.58-8.285-29.016-17.129-6.372-8.756-3.928-22.36-7.344-32.879-3.296-10.15-13.378-19.668-13.378-30.917 0-11.248 10.082-20.767 13.378-30.917 3.416-10.52.972-24.123 7.344-32.879 6.436-8.844 20.172-10.693 29.016-17.129 8.756-6.372 14.725-18.901 25.244-22.317 10.15-3.296 22.296 3.224 33.545 3.224 11.248 0 23.395-6.52 33.544-3.224 10.52 3.416 16.488 15.945 25.245 22.317 8.844 6.436 22.58 8.285 29.016 17.129 6.372 8.756 3.928 22.36 7.344 32.879 3.297 10.15 13.379 19.668 13.379 30.917z" fill="#fece85"/><path d="m486.996 151.948c0 11.256-10.082 20.771-13.377 30.925-3.419 10.514-.968 24.118-7.343 32.872-6.436 8.846-20.174 10.7-29.02 17.136-8.753 6.364-14.726 18.897-25.241 22.316-10.154 3.295-22.295-3.223-33.551-3.223-11.245 0-23.387 6.519-33.541 3.223-5.561-1.802-9.845-6.158-13.954-10.803 8.805.216 33.678-11.612 42.874-11.612 11.245 0 24.985 6.262 35.139 2.967 10.525-3.419 10.198-17.493 18.951-23.857 8.846-6.436 14.618-3.513 21.054-12.359 6.374-8.753.652-14.368 4.06-24.882 3.295-10.154 12.777-12.768 12.777-24.024 0-11.246-13.946-25.842-13.946-38.156 0-11.053 1.061-27.275-5.313-36.039-.144-.196-.288-.391-.453-.577 7.507 3.326 15.643 6.086 20.164 12.296 6.375 8.764 3.924 22.367 7.343 32.882 3.295 10.154 13.377 19.669 13.377 30.915z" fill="#fec165"/><g><g><path d="m343.563 182.145c-.696 0-1.402-.146-2.076-.454-2.512-1.148-3.616-4.115-2.468-6.626l4.382-9.583c1.148-2.512 4.115-3.617 6.626-2.468 2.512 1.148 3.616 4.115 2.468 6.626l-4.382 9.583c-.84 1.837-2.653 2.922-4.55 2.922z" fill="#efa645"/></g><g><path d="m374.546 175.077c-6.037 0-11.588-3.245-14.55-8.528-1.35-2.409-.492-5.457 1.917-6.807 2.411-1.348 5.457-.491 6.807 1.917 1.209 2.158 3.509 3.491 5.965 3.417 3.477-.07 6.341-2.84 6.521-6.307.096-1.853-.552-3.611-1.824-4.952-1.273-1.341-2.991-2.08-4.837-2.08-2.832 0-3.928.401-5.396 1.063-.146.065-.24.111-.274.128-1.681.848-3.707.683-5.224-.432-1.516-1.116-2.289-2.982-1.981-4.839l2.84-17.142c.399-2.413 2.487-4.183 4.933-4.183h14.336c2.761 0 5 2.239 5 5s-2.239 5-5 5h-10.096l-.903 5.45c.555-.03 1.142-.046 1.766-.046 4.548 0 8.955 1.894 12.089 5.195 3.179 3.349 4.798 7.736 4.559 12.355-.451 8.678-7.613 15.612-16.306 15.787-.115.003-.229.004-.342.004z" fill="#efa645"/></g><g><path d="m313.664 175.087c-7.427 0-7.999-.19-8.672-.416-1.634-.544-2.858-1.786-3.356-3.405-.84-2.729.471-4.446 2.852-7.563 1.935-2.533 5.536-7.248 11.573-15.874 1.658-2.368 2.77-4.55 3.229-6.328l.106-.827c-.137-2.505-2.218-4.501-4.756-4.501-2.272 0-4.238 1.613-4.674 3.835-.532 2.71-3.158 4.477-5.87 3.942-2.709-.532-4.475-3.161-3.942-5.87 1.355-6.899 7.448-11.907 14.487-11.907 8.141 0 14.764 6.623 14.764 14.764 0 .212-.031 1.712-.319 2.606-.717 3.095-2.343 6.467-4.831 10.021-3.516 5.024-6.226 8.752-8.272 11.508 3.091-.011 6.626-.041 9.976-.083 2.733-.077 5.028 2.175 5.063 4.937s-2.175 5.028-4.937 5.063c-5.494.069-9.491.098-12.421.098z" fill="#efa645"/></g><g><path d="m419.844 176.043c-.615 0-1.24-.114-1.846-.355-2.566-1.021-3.819-3.928-2.798-6.494l16.177-40.674c1.021-2.566 3.93-3.819 6.494-2.798 2.566 1.021 3.819 3.928 2.798 6.494l-16.177 40.674c-.78 1.96-2.66 3.153-4.648 3.153z" fill="#efa645"/></g><g><g><circle cx="411.852" cy="134.623" fill="#efa645" r="7.862"/></g><g><circle cx="444.017" cy="166.787" fill="#efa645" r="7.862"/></g></g></g></g></svg>